<?xml version="1.0" encoding="utf-8"?>
<!-- Generator: Adobe Illustrator 27.5.0, SVG Export Plug-In . SVG Version: 6.00 Build 0)  -->
<svg version="1.1" xmlns="http://www.w3.org/2000/svg" xmlns:xlink="http://www.w3.org/1999/xlink" x="0px" y="0px"
	 viewBox="0 0 500 500" style="enable-background:new 0 0 500 500;" xml:space="preserve">
<g id="Floor">
	<path id="Floor_4_" style="fill:#F5F5F5;" d="M77.668,454.511c-95.176-54.951-95.176-144.042,0-198.991s249.487-54.949,344.663,0
		s95.176,144.041,0,198.991C327.155,509.461,172.844,509.461,77.668,454.511z"/>
</g>
<g id="Shadows">
	<path id="Shadow_1_" style="fill:#E0E0E0;" d="M127.335,450.493l-9.346-5.392c-0.756-0.436-0.756-1.144,0-1.58l67.191-38.795
		c0.756-0.436,0.95-1.362,0.496-2.108c-2.133-3.503-2.958-7.275-2.396-11.102c0.892-6.083,5.355-11.727,12.565-15.89
		c7.785-4.493,18.08-6.968,28.989-6.968c10.911,0,21.206,2.475,28.989,6.968c8.221,4.746,12.748,11.208,12.748,18.196
		c0.001,6.989-4.526,13.451-12.748,18.199c-7.777,4.49-18.065,6.963-28.969,6.963c-4.493,0-8.887-0.418-13.102-1.244
		c-0.857-0.168-2.161,0.03-2.917,0.467l-10.462,6.04c-0.756,0.436-2.06,0.634-2.911,0.442l-7.061-1.596
		c-0.852-0.193-2.155,0.005-2.911,0.442l-2.129,1.23c-0.756,0.437-1.401,1.498-1.44,2.37l-0.235,5.21
		c-0.039,0.872-0.684,1.933-1.441,2.37l-2.677,1.545c-0.756,0.436-2.074,0.852-2.944,0.929l-6.239,0.548
		c-0.87,0.076-2.193,0.483-2.955,0.909l-2.573,1.436c-0.762,0.426-1.289,1.472-1.177,2.338l0.161,1.237
		c0.113,0.866-0.409,1.922-1.165,2.358l-7.76,4.48c-0.756,0.437-2.077,0.79-2.95,0.79h-19.68
		C129.412,451.283,128.091,450.93,127.335,450.493z M235.141,383.709c-2.492,0-4.895,0.561-6.589,1.54
		c-1.245,0.719-1.988,1.595-1.988,2.344c0,0.749,0.743,1.624,1.988,2.343c1.695,0.979,4.095,1.54,6.589,1.54
		c2.492,0,4.895-0.561,6.589-1.54c1.245-0.719,1.989-1.594,1.989-2.343c0-0.75-0.744-1.625-1.989-2.344
		C240.036,384.27,237.633,383.709,235.141,383.709z"/>
	<ellipse id="Shadow_5_" style="fill:#E0E0E0;" cx="375.639" cy="365.177" rx="81.517" ry="47.064"/>
</g>
<g id="Gears_1_">
	<g id="Gears">
		<g id="Gear_4_">
			<path style="fill:#BA68C8;" d="M382.346,139.342l-3.423-5.146c-0.099-0.15-0.378-0.27-0.571-0.276
				c-0.74,0.015-1.524-0.06-2.319-0.235c-0.047-0.01-0.089-0.006-0.117,0.015c-0.024,0.018-0.039,0.048-0.043,0.09l-0.452,4.496
				c-0.028,0.282-0.17,0.507-0.391,0.62c-0.219,0.112-0.486,0.096-0.731-0.046l-4.628-2.671c-0.383-0.22-0.7-0.718-0.739-1.157
				l-0.464-5.149c-0.02-0.221-0.192-0.562-0.361-0.717c-0.898-0.828-1.774-1.756-2.604-2.758c-0.105-0.125-0.343-0.193-0.494-0.142
				l-2.972,1.038c-0.47,0.162-1.035-0.046-1.284-0.478l-3.403-5.892c-0.249-0.432-0.148-1.026,0.23-1.352l2.383-2.054
				c0.12-0.103,0.181-0.346,0.124-0.499c-0.453-1.219-0.818-2.442-1.086-3.636c-0.049-0.223-0.26-0.543-0.44-0.67l-4.228-2.976
				c-0.361-0.254-0.632-0.778-0.632-1.218v-5.344c0-0.283,0.119-0.521,0.327-0.656c0.206-0.134,0.474-0.145,0.732-0.029l4.119,1.857
				c0.039,0.019,0.072,0.02,0.099,0.007c0.031-0.014,0.057-0.048,0.072-0.095c0.246-0.776,0.568-1.491,0.957-2.125
				c0.105-0.17,0.127-0.473,0.046-0.633l-2.746-5.535c-0.229-0.461-0.052-1.045,0.393-1.301l2.979-1.72
				c0.449-0.262,1.032-0.126,1.323,0.31l3.421,5.145c0.101,0.151,0.361,0.263,0.572,0.277c0.741-0.014,1.524,0.061,2.319,0.235
				c0.047,0.011,0.09,0.005,0.118-0.015c0.024-0.018,0.038-0.048,0.043-0.089l0.452-4.496c0.028-0.281,0.17-0.507,0.39-0.62
				c0.22-0.113,0.486-0.097,0.732,0.045l4.628,2.672c0.381,0.22,0.699,0.717,0.739,1.156l0.464,5.15
				c0.019,0.219,0.191,0.561,0.361,0.717c0.901,0.83,1.778,1.759,2.605,2.758c0.104,0.125,0.342,0.194,0.494,0.142l2.971-1.038
				c0.47-0.165,1.035,0.046,1.285,0.478l3.402,5.893c0.25,0.432,0.149,1.027-0.229,1.352l-2.383,2.054
				c-0.12,0.103-0.181,0.346-0.124,0.499c0.453,1.221,0.819,2.445,1.085,3.635c0.051,0.224,0.261,0.544,0.442,0.671l4.227,2.976
				c0.361,0.254,0.633,0.778,0.633,1.219v5.343c0,0.283-0.119,0.522-0.327,0.656c-0.208,0.133-0.474,0.145-0.732,0.028l-4.119-1.856
				c-0.039-0.017-0.073-0.018-0.099-0.008c-0.032,0.015-0.058,0.048-0.072,0.094c-0.244,0.774-0.566,1.49-0.956,2.126
				c-0.104,0.17-0.126,0.472-0.046,0.633l2.744,5.536c0.23,0.46,0.054,1.044-0.392,1.3l-2.979,1.721
				c-0.151,0.088-0.319,0.129-0.487,0.129C382.855,139.781,382.533,139.625,382.346,139.342z M385.779,127.561l4.113,1.861v-5.343
				c0-0.196-0.152-0.488-0.313-0.601l-4.227-2.976c-0.332-0.234-0.651-0.717-0.743-1.124c-0.259-1.158-0.614-2.347-1.056-3.538
				c-0.167-0.45-0.021-1.024,0.339-1.333l2.384-2.054c0.103-0.088,0.137-0.284,0.069-0.402l-3.402-5.892
				c-0.069-0.12-0.253-0.188-0.383-0.143l-2.97,1.038c-0.445,0.156-1.018-0.003-1.324-0.372c-0.807-0.974-1.66-1.878-2.536-2.685
				c-0.307-0.283-0.566-0.801-0.601-1.206l-0.464-5.149c-0.018-0.195-0.195-0.473-0.364-0.571l-4.621-2.675l-0.452,4.496
				c-0.026,0.258-0.15,0.48-0.351,0.625c-0.202,0.146-0.467,0.199-0.723,0.141c-0.735-0.162-1.459-0.239-2.136-0.218
				c-0.487,0.005-0.975-0.245-1.221-0.614l-3.421-5.145c-0.066-0.101-0.212-0.133-0.317-0.075l-2.979,1.721
				c-0.103,0.059-0.147,0.204-0.094,0.31l2.746,5.536c0.195,0.395,0.162,0.969-0.08,1.364c-0.357,0.582-0.653,1.24-0.88,1.958
				c-0.079,0.251-0.255,0.454-0.482,0.556c-0.227,0.102-0.482,0.099-0.718-0.007l-4.113-1.861v5.344
				c0,0.196,0.152,0.488,0.312,0.601l4.228,2.976c0.333,0.234,0.652,0.718,0.743,1.122c0.26,1.16,0.616,2.351,1.057,3.538
				c0.167,0.451,0.021,1.024-0.339,1.334l-2.384,2.054c-0.105,0.09-0.137,0.283-0.069,0.402l3.403,5.892
				c0.069,0.119,0.254,0.187,0.382,0.142l2.971-1.037c0.445-0.156,1.018,0.003,1.324,0.372c0.808,0.976,1.661,1.879,2.534,2.684
				c0.307,0.282,0.566,0.8,0.603,1.206l0.464,5.15c0.017,0.195,0.194,0.472,0.364,0.57l4.621,2.676l0.452-4.496
				c0.025-0.258,0.15-0.481,0.351-0.626c0.201-0.146,0.466-0.199,0.723-0.141c0.736,0.162,1.458,0.241,2.137,0.218
				c0.466-0.013,0.977,0.246,1.22,0.613l3.423,5.146c0.066,0.099,0.215,0.131,0.316,0.075l2.979-1.721
				c0.103-0.059,0.147-0.204,0.094-0.311l-2.745-5.535c-0.196-0.395-0.163-0.967,0.078-1.364c0.358-0.584,0.655-1.243,0.88-1.959
				c0.08-0.251,0.257-0.454,0.484-0.556c0.11-0.049,0.227-0.073,0.345-0.073C385.531,127.479,385.657,127.507,385.779,127.561z
				 M371.984,125.657L371.984,125.657c-4.415-2.549-8.006-8.769-8.006-13.867c0-2.552,0.88-4.465,2.479-5.388
				c1.599-0.923,3.695-0.729,5.905,0.548c4.415,2.549,8.007,8.769,8.007,13.867c0,2.552-0.88,4.465-2.479,5.388
				c-0.665,0.384-1.416,0.574-2.225,0.574C374.529,126.779,373.276,126.402,371.984,125.657z M366.835,107.055
				c-1.355,0.782-2.101,2.463-2.101,4.734c0,4.858,3.422,10.785,7.628,13.214l0,0c1.966,1.134,3.794,1.33,5.151,0.547
				c1.355-0.782,2.101-2.463,2.101-4.734c0-4.858-3.423-10.785-7.63-13.214c-1.173-0.677-2.297-1.019-3.301-1.019
				C368.005,106.583,367.381,106.74,366.835,107.055z"/>
		</g>
		<path id="Gear_3_" style="fill:#BA68C8;" d="M344.98,132.781l2.11,2.717c0.254,0.327,0.437,0.869,0.431,1.216
			c-0.009,0.511,0.016,1.044,0.073,1.592c0.037,0.356-0.228,0.649-0.608,0.653l-1.483,0.014c-0.381,0.004-0.598,0.299-0.485,0.66
			l1.158,3.69c0.113,0.361,0.525,0.752,0.919,0.873l1.75,0.54c0.394,0.122,0.849,0.509,1.028,0.862
			c0.318,0.628,0.665,1.249,1.04,1.855c0.212,0.344,0.334,0.883,0.259,1.207l-0.497,2.13c-0.076,0.324,0.087,0.842,0.364,1.156
			l2.428,2.76c0.277,0.315,0.633,0.343,0.795,0.064l0.875-1.506c0.162-0.279,0.56-0.284,0.904-0.031
			c0.357,0.263,0.713,0.497,1.064,0.704c0.368,0.216,0.788,0.657,0.925,1.017l1.276,3.346c0.137,0.359,0.568,0.701,0.962,0.763
			l1.858,0.293c0.394,0.062,0.642-0.18,0.554-0.54l-0.791-3.237c-0.088-0.36,0.122-0.724,0.429-0.87
			c0.189-0.09,0.37-0.197,0.541-0.321c0.267-0.194,0.69-0.144,0.99,0.154l2.19,2.183c0.3,0.299,0.637,0.294,0.754-0.012l0.791-2.063
			c0.117-0.305,0.006-0.818-0.249-1.145l-2.11-2.717c-0.254-0.327-0.438-0.869-0.432-1.216c0.009-0.511-0.016-1.044-0.073-1.592
			c-0.037-0.355,0.228-0.649,0.609-0.653l1.483-0.014c0.381-0.004,0.598-0.299,0.485-0.66l-1.158-3.691
			c-0.113-0.361-0.525-0.751-0.919-0.873l-1.75-0.54c-0.394-0.122-0.849-0.509-1.028-0.862c-0.318-0.628-0.665-1.249-1.04-1.855
			c-0.213-0.344-0.334-0.883-0.259-1.207l0.497-2.13c0.076-0.324-0.088-0.842-0.364-1.156l-2.429-2.76
			c-0.277-0.315-0.633-0.343-0.795-0.064l-0.874,1.506c-0.162,0.279-0.56,0.284-0.904,0.031c-0.357-0.263-0.713-0.497-1.064-0.704
			c-0.367-0.216-0.788-0.657-0.925-1.017l-1.276-3.346c-0.137-0.359-0.568-0.701-0.962-0.763l-1.858-0.293
			c-0.394-0.062-0.642,0.18-0.554,0.54l0.791,3.238c0.088,0.361-0.122,0.724-0.429,0.87c-0.189,0.09-0.37,0.197-0.541,0.321
			c-0.267,0.194-0.69,0.144-0.99-0.154l-2.19-2.183c-0.3-0.299-0.637-0.294-0.754,0.011l-0.791,2.063
			C344.614,131.941,344.725,132.453,344.98,132.781z M351.392,137.726c0.932-2.43,3.82-1.974,6.452,1.017
			c2.632,2.991,4.011,7.386,3.079,9.816c-0.932,2.43-3.821,1.974-6.453-1.017C351.839,144.55,350.461,140.155,351.392,137.726z"/>
	</g>
</g>
<g id="Plant">
	<g id="Plants_3_">
		<g id="XMLID_701_">
			<g id="XMLID_710_">
				<path style="fill:#BA68C8;" d="M231.798,308.708c-9.04,2.52-16.12,19.1-16.16,35.15c-0.02,9.51,0.61,17.75,1.82,25.02l4.27,2.47
					l1.23,0.71l4.29,2.47l2.64,1.53c-0.99-7.82-0.89-14.28-0.04-19.79v-0.01c0.61-4.01,1.61-7.51,2.87-10.67
					c2.68-6.76,7-13.53,8.68-18.18C245.608,315.819,240.218,306.358,231.798,308.708z"/>
				<g id="XMLID_712_" style="opacity:0.65;">
					<path style="fill:#FFFFFF;" d="M231.798,308.708c-9.04,2.52-16.12,19.1-16.16,35.15c-0.02,9.51,0.61,17.75,1.82,25.02
						l4.27,2.47l1.23,0.71l4.29,2.47l2.64,1.53c-0.99-7.82-0.89-14.28-0.04-19.79v-0.01c0.61-4.01,1.61-7.51,2.87-10.67
						c2.68-6.76,7-13.53,8.68-18.18C245.608,315.819,240.218,306.358,231.798,308.708z"/>
				</g>
			</g>
			<g id="XMLID_705_">
				<path style="fill:#FFFFFF;" d="M234.758,314.839c-9.02,10.13-15.71,32.95-11.8,57.22l-1.23-0.71
					c-3.66-24.3,3.13-47.09,12.2-57.26c0.21-0.23,0.56-0.25,0.79-0.04C234.948,314.249,234.968,314.608,234.758,314.839z"/>
			</g>
		</g>
		<g id="XMLID_696_">
			<g id="XMLID_700_">
				<path style="fill:#BA68C8;" d="M243.038,337.478c-2.01,1.04-6.73,5.23-8.25,7.93c-1.75,3.11-3.54,6.69-4.94,10.85v0.01
					c-1.73,5.13-2.86,11.14-2.6,18.26l2.64,1.53l1.23,0.71l1.12,0.64l4.39,2.53c0.81-3.6,2.21-7.65,4.3-11.8
					c5.16-10.21,14.67-17.72,15.39-23.43C257.178,337.839,251.978,332.839,243.038,337.478z"/>
				<path style="opacity:0.3;fill:#FFFFFF;" d="M243.038,337.478c-2.01,1.04-6.73,5.23-8.25,7.93c-1.75,3.11-3.54,6.69-4.94,10.85
					v0.01c-1.73,5.13-2.86,11.14-2.6,18.26l2.64,1.53l1.23,0.71l1.12,0.64l4.39,2.53c0.81-3.6,2.21-7.65,4.3-11.8
					c5.16-10.21,14.67-17.72,15.39-23.43C257.178,337.839,251.978,332.839,243.038,337.478z"/>
			</g>
			<g id="XMLID_698_">
				<path style="fill:#FFFFFF;" d="M248.338,343.728c-5.75,3.83-15.4,15.32-16.1,33.68l-1.12-0.64
					c0.82-18.37,10.31-29.78,16.6-33.97c0.27-0.18,0.6-0.1,0.78,0.15C248.668,343.208,248.598,343.559,248.338,343.728z"/>
			</g>
		</g>
	</g>
</g>
<g id="Folders">
	<g id="Folder_7_">
		<g id="Folder_5_">
			<path style="fill:#BA68C8;" d="M51.45,385.57c-0.275,0-0.548-0.072-0.798-0.216c-0.499-0.289-0.797-0.805-0.797-1.382v-65.696
				c0-0.6,0.195-1.266,0.548-1.876c0.353-0.605,0.83-1.106,1.347-1.411l19.35-11.167c0.68-0.395,1.432-0.423,2.057-0.067
				c0.491,0.281,0.832,0.726,0.996,1.272l1.563,5.214c0.082,0.268,0.241,0.462,0.445,0.544c0.204,0.081,0.449,0.048,0.692-0.091
				l41.914-24.19c0.567-0.332,1.147-0.396,1.626-0.184l0.204,0.11c0.468,0.296,0.735,0.859,0.735,1.546v55.292
				c0,1.231-0.835,2.675-1.901,3.29l-67.185,38.796C51.996,385.497,51.723,385.57,51.45,385.57z M72.204,304.825
				c-0.144,0-0.295,0.047-0.446,0.134l-19.346,11.165c-0.314,0.187-0.635,0.529-0.872,0.936c-0.235,0.406-0.369,0.849-0.369,1.215
				v65.696c0,0.14,0.088,0.213,0.139,0.242c0.053,0.032,0.158,0.069,0.279,0.001l67.185-38.796c0.661-0.382,1.241-1.387,1.241-2.152
				v-55.292c0-0.263-0.07-0.39-0.114-0.429l-0.085-0.046c-0.019-0.001-0.171,0.012-0.392,0.14l-41.916,24.19
				c-0.588,0.34-1.254,0.401-1.832,0.176c-0.586-0.232-1.021-0.725-1.221-1.387l-1.564-5.215c-0.066-0.223-0.194-0.398-0.356-0.493
				C72.428,304.854,72.319,304.825,72.204,304.825z"/>
		</g>
		<g id="Folder_3_">
			<g>
				<path style="fill:#BA68C8;" d="M141.734,357.804l-0.509-0.294c0,0-0.197-0.114-0.595-0.344l-0.518-0.299
					c-0.792-0.459-1.531-1.564-1.652-2.471l-7.043-52.86c-0.114-0.854-0.502-1.466-1.046-1.781c-0.186-0.108-0.71-0.411-0.897-0.519
					c-0.612-0.351-1.42-0.326-2.257,0.157L91.04,320.032c-0.865,0.499-1.86,0.562-2.735,0.262c-0.268-0.234-0.504-0.513-0.692-0.838
					l-1.175-2.034c-0.301-0.521-0.722-0.928-1.208-1.209c-0.187-0.108-0.716-0.413-0.903-0.52c-0.991-0.569-2.249-0.611-3.31,0.001
					l-16.712,9.649c-1.586,0.916-2.676,3.131-2.434,4.947l8.408,63.113c0.101,0.834,0.787,2.318,2.056,3.072l1.619,0.934
					c0.238,0.141,0.601,0.293,1.003,0.304c0.412,0.012,0.7-0.13,0.826-0.202l66.969-39.607
					C142.491,358.055,142.131,358.034,141.734,357.804z"/>
				<path style="opacity:0.25;" d="M141.734,357.804l-1.618-0.934c-0.793-0.458-1.535-1.565-1.655-2.474l-7.043-52.86
					c-0.242-1.816-1.724-2.546-3.311-1.63L92.144,320.67c-1.587,0.916-3.615,0.372-4.531-1.214l-1.175-2.034
					c-0.916-1.587-2.945-2.13-4.532-1.214l-16.712,9.649c-1.587,0.916-2.676,3.131-2.435,4.947l8.326,62.492
					c0.121,0.908,0.862,2.015,1.655,2.473l1.619,0.935c0.396,0.229,0.755,0.251,1.015,0.101l67.376-38.9
					C142.491,358.055,142.131,358.034,141.734,357.804z"/>
				<path style="opacity:0.25;" d="M72.741,395.768l1.619,0.935c0.396,0.229,0.755,0.251,1.015,0.101l67.376-38.9
					c-0.26,0.151-0.62,0.13-1.017-0.1l-1.618-0.934c-0.39-0.225-0.765-0.608-1.062-1.046l-67.374,38.898
					C71.977,395.16,72.352,395.543,72.741,395.768z"/>
			</g>
			<g>
				<path id="XMLID_333_" style="fill:#FAFAFA;" d="M73.134,335.739l0,54.862c0,0.239,0.168,0.53,0.375,0.65l0.423,0.244
					c0.207,0.12,0.543,0.12,0.75,0l60.781-35.092c0.207-0.12,0.375-0.411,0.375-0.65l0-54.861c0-0.239-0.168-0.53-0.375-0.65
					l-0.424-0.245c-0.207-0.12-0.543-0.12-0.751,0l-60.781,35.092C73.302,335.209,73.134,335.5,73.134,335.739z"/>
				<path id="XMLID_332_" style="fill:#E0E0E0;" d="M135.83,300.794c-0.007-0.046-0.02-0.092-0.037-0.139
					c-0.009-0.022-0.02-0.045-0.029-0.067c-0.033-0.068-0.074-0.134-0.122-0.193c-0.032-0.038-0.065-0.072-0.102-0.101
					c-0.025-0.019-0.051-0.037-0.077-0.052l-0.421-0.244c-0.209-0.119-0.543-0.12-0.751,0l-60.781,35.092
					c-0.105,0.061-0.2,0.162-0.265,0.28l1.172,0.678c0.069-0.117,0.163-0.221,0.265-0.28l60.78-35.092
					C135.641,300.573,135.79,300.627,135.83,300.794z"/>
				<g>
					<path id="XMLID_329_" style="fill:#E0E0E0;" d="M74.577,391.54c-0.156,0.036-0.27-0.064-0.271-0.261l0-54.862
						c0.001-0.12,0.04-0.254,0.11-0.37l-1.172-0.678c-0.069,0.117-0.112,0.251-0.11,0.37l0,54.862
						c-0.003,0.238,0.166,0.531,0.374,0.648l0.423,0.246C74.11,391.597,74.376,391.613,74.577,391.54z"/>
				</g>
				<g style="opacity:0.1;">
					<path id="XMLID_328_" d="M74.577,391.54c-0.156,0.036-0.27-0.064-0.271-0.261l0-54.862c0.001-0.12,0.04-0.254,0.11-0.37
						l-1.172-0.678c-0.069,0.117-0.112,0.251-0.11,0.37l0,54.862c-0.003,0.238,0.166,0.531,0.374,0.648l0.423,0.246
						C74.11,391.597,74.376,391.613,74.577,391.54z"/>
				</g>
			</g>
			<path style="fill:#BA68C8;" d="M143.985,305.371c0-0.914-0.321-1.556-0.838-1.856c-0.138-0.08-0.686-0.398-0.826-0.477
				c-0.519-0.297-1.234-0.253-2.025,0.203l-61.628,35.582c-1.587,0.916-2.873,3.144-2.873,4.976v52.075
				c0,0.459-0.161,0.781-0.422,0.93l0.406,0.707l67.785-39.135c0.259-0.15,0.419-0.472,0.419-0.929L143.985,305.371z"/>
			<path style="opacity:0.25;fill:#FFFFFF;" d="M75.781,397.51c0.376-0.217,0.831-0.707,0.831-1.637v-51.603
				c0-1.832,1.286-4.06,2.873-4.976l61.628-35.582c1.587-0.916,2.873-0.173,2.873,1.659l0,52.075c0,0.457-0.16,0.779-0.419,0.929
				L75.781,397.51z"/>
		</g>
		<path style="fill:#FFFFFF;" d="M124.403,349.56l-6.832-5.781c-0.436-0.369-1.172,0.042-1.621,0.906l-2.477,4.767
			c-0.439,0.844-1.154,1.26-1.595,0.927l-5.82-4.394c-0.441-0.333-1.157,0.083-1.595,0.927l-9.098,17.509v6.031l29.039-16.766
			V349.56z M120.935,339.781c1.441-0.833,2.609-3.067,2.609-4.991c0-1.923-1.168-2.807-2.609-1.975
			c-1.441,0.833-2.609,3.067-2.609,4.991C118.326,339.73,119.494,340.614,120.935,339.781z M127.708,321.845l-35.649,20.605
			c-0.903,0.522-1.636,1.924-1.636,3.13v32.166c0,1.206,0.732,1.761,1.636,1.238l35.649-20.605c0.903-0.522,1.636-1.924,1.636-3.13
			v-32.166C129.344,321.878,128.611,321.323,127.708,321.845z M126.469,355.064l-33.171,19.174v-28.47l33.171-19.174V355.064z"/>
	</g>
	<g id="Folder_6_">
		<g id="Folder_4_">
			<path style="fill:#BA68C8;" d="M51.45,270.677c-0.275,0-0.548-0.072-0.798-0.216c-0.499-0.289-0.797-0.805-0.797-1.382v-65.696
				c0-0.6,0.195-1.266,0.548-1.876c0.353-0.605,0.83-1.106,1.347-1.411l19.35-11.167c0.68-0.395,1.432-0.423,2.057-0.066
				c0.491,0.281,0.832,0.726,0.996,1.272l1.563,5.214c0.082,0.268,0.241,0.462,0.445,0.544c0.204,0.081,0.449,0.048,0.692-0.091
				l41.914-24.19c0.567-0.332,1.147-0.396,1.626-0.183l0.204,0.11c0.468,0.296,0.735,0.859,0.735,1.546v55.292
				c0,1.231-0.835,2.675-1.901,3.29L52.245,270.46C51.996,270.604,51.723,270.677,51.45,270.677z M72.204,189.932
				c-0.144,0-0.295,0.047-0.446,0.135l-19.346,11.165c-0.314,0.187-0.635,0.529-0.872,0.936c-0.235,0.406-0.369,0.849-0.369,1.216
				v65.696c0,0.14,0.088,0.213,0.139,0.242c0.053,0.032,0.158,0.069,0.279,0.001l67.185-38.796c0.661-0.382,1.241-1.387,1.241-2.152
				v-55.292c0-0.263-0.07-0.39-0.114-0.429l-0.085-0.046c-0.019-0.001-0.171,0.012-0.392,0.14l-41.916,24.19
				c-0.588,0.34-1.254,0.401-1.832,0.177c-0.586-0.231-1.021-0.725-1.221-1.387l-1.564-5.215c-0.066-0.223-0.194-0.399-0.356-0.493
				C72.428,189.961,72.319,189.932,72.204,189.932z"/>
		</g>
		<g id="Folder_2_">
			<g>
				<path style="fill:#BA68C8;" d="M141.734,243.109l-0.509-0.294c0,0-0.197-0.114-0.595-0.344l-0.518-0.299
					c-0.792-0.46-1.531-1.564-1.652-2.471l-7.043-52.86c-0.114-0.854-0.502-1.466-1.046-1.781c-0.186-0.108-0.71-0.411-0.897-0.519
					c-0.612-0.351-1.42-0.326-2.257,0.157L91.04,205.337c-0.865,0.499-1.86,0.562-2.735,0.262c-0.268-0.234-0.504-0.513-0.692-0.838
					l-1.175-2.034c-0.301-0.521-0.722-0.928-1.208-1.209c-0.187-0.108-0.716-0.413-0.903-0.52c-0.991-0.569-2.249-0.611-3.31,0.001
					l-16.712,9.649c-1.586,0.916-2.676,3.131-2.434,4.947l8.408,63.113c0.101,0.834,0.787,2.318,2.056,3.072l1.619,0.934
					c0.238,0.141,0.601,0.293,1.003,0.304c0.412,0.012,0.7-0.13,0.826-0.202l66.969-39.607
					C142.491,243.36,142.131,243.338,141.734,243.109z"/>
				<path style="opacity:0.25;" d="M141.734,243.109l-1.618-0.934c-0.793-0.458-1.535-1.565-1.655-2.473l-7.043-52.86
					c-0.242-1.816-1.724-2.546-3.311-1.63l-35.962,20.763c-1.587,0.916-3.615,0.372-4.531-1.214l-1.175-2.034
					c-0.916-1.587-2.945-2.13-4.532-1.214l-16.712,9.649c-1.587,0.916-2.676,3.131-2.435,4.947l8.326,62.492
					c0.121,0.908,0.862,2.015,1.655,2.473l1.619,0.935c0.396,0.229,0.755,0.251,1.015,0.101l67.376-38.9
					C142.491,243.36,142.131,243.338,141.734,243.109z"/>
				<path style="opacity:0.25;" d="M72.741,281.073l1.619,0.935c0.396,0.229,0.755,0.251,1.015,0.101l67.376-38.9
					c-0.26,0.151-0.62,0.13-1.017-0.1l-1.618-0.934c-0.39-0.225-0.765-0.608-1.062-1.046l-67.374,38.898
					C71.977,280.465,72.352,280.848,72.741,281.073z"/>
			</g>
			<g>
				<path id="XMLID_319_" style="fill:#FAFAFA;" d="M73.134,221.044l0,54.862c0,0.239,0.168,0.53,0.375,0.65l0.423,0.244
					c0.207,0.12,0.543,0.12,0.75,0l60.781-35.092c0.207-0.12,0.375-0.411,0.375-0.65l0-54.861c0-0.239-0.168-0.53-0.375-0.65
					l-0.424-0.245c-0.207-0.12-0.543-0.12-0.751,0l-60.781,35.092C73.302,220.514,73.134,220.805,73.134,221.044z"/>
				<path id="XMLID_318_" style="fill:#E0E0E0;" d="M135.83,186.099c-0.007-0.046-0.02-0.092-0.037-0.139
					c-0.009-0.021-0.02-0.045-0.029-0.067c-0.033-0.068-0.074-0.134-0.122-0.193c-0.032-0.038-0.065-0.073-0.102-0.101
					c-0.025-0.019-0.051-0.037-0.077-0.052l-0.421-0.244c-0.209-0.12-0.543-0.12-0.751,0l-60.781,35.092
					c-0.105,0.061-0.2,0.162-0.265,0.28l1.172,0.678c0.069-0.117,0.163-0.221,0.265-0.28l60.78-35.092
					C135.641,185.877,135.79,185.932,135.83,186.099z"/>
				<g>
					<path id="XMLID_316_" style="fill:#E0E0E0;" d="M74.577,276.845c-0.156,0.036-0.27-0.064-0.271-0.261l0-54.862
						c0.001-0.12,0.04-0.253,0.11-0.37l-1.172-0.678c-0.069,0.117-0.112,0.251-0.11,0.37l0,54.862
						c-0.003,0.238,0.166,0.531,0.374,0.648l0.423,0.246C74.11,276.901,74.376,276.918,74.577,276.845z"/>
				</g>
				<g style="opacity:0.1;">
					<path id="XMLID_314_" d="M74.577,276.845c-0.156,0.036-0.27-0.064-0.271-0.261l0-54.862c0.001-0.12,0.04-0.253,0.11-0.37
						l-1.172-0.678c-0.069,0.117-0.112,0.251-0.11,0.37l0,54.862c-0.003,0.238,0.166,0.531,0.374,0.648l0.423,0.246
						C74.11,276.901,74.376,276.918,74.577,276.845z"/>
				</g>
			</g>
			<path style="fill:#BA68C8;" d="M143.985,190.676c0-0.914-0.321-1.556-0.838-1.856c-0.138-0.08-0.686-0.398-0.826-0.477
				c-0.519-0.297-1.234-0.253-2.025,0.203l-61.628,35.582c-1.587,0.916-2.873,3.144-2.873,4.976v52.075
				c0,0.458-0.161,0.781-0.422,0.93l0.406,0.707l67.785-39.135c0.259-0.15,0.419-0.472,0.419-0.929L143.985,190.676z"/>
			<path style="opacity:0.25;fill:#FFFFFF;" d="M75.781,282.815c0.376-0.217,0.831-0.707,0.831-1.637v-51.603
				c0-1.832,1.286-4.06,2.873-4.976l61.628-35.582c1.587-0.916,2.873-0.173,2.873,1.659l0,52.075c0,0.457-0.16,0.779-0.419,0.929
				L75.781,282.815z"/>
		</g>
		<path style="fill:#FAFAFA;" d="M125.895,223.815l-16.646,9.611c-0.841-4.731-4.319-6.639-8.481-4.236
			c-4.795,2.768-8.678,10.194-8.678,16.581c0,6.386,3.883,9.329,8.678,6.56c4.195-2.422,7.698-8.421,8.503-14.164l9.494-5.481v4.296
			c0,1.313,0.798,1.916,1.783,1.348c0.985-0.568,1.783-2.093,1.783-3.406v-4.296l3.565-2.058c0.984-0.568,1.783-2.093,1.783-3.406
			S126.879,223.247,125.895,223.815z M100.768,248.35c-3.144,1.815-5.692-0.111-5.692-4.303c0-4.192,2.548-9.06,5.692-10.875
			c3.144-1.815,5.692,0.111,5.692,4.303C106.459,241.666,103.911,246.534,100.768,248.35z"/>
	</g>
	<g id="Folder">
		<g id="Folder_17_">
			<path style="fill:#BA68C8;" d="M51.45,155.783c-0.275,0-0.548-0.072-0.798-0.216c-0.499-0.289-0.797-0.805-0.797-1.382V88.489
				c0-0.6,0.195-1.266,0.548-1.876c0.353-0.605,0.83-1.106,1.347-1.411l19.35-11.167c0.68-0.395,1.432-0.423,2.057-0.067
				c0.491,0.281,0.832,0.726,0.996,1.272l1.563,5.214c0.082,0.268,0.241,0.462,0.445,0.543c0.204,0.081,0.449,0.048,0.692-0.091
				l41.914-24.19c0.567-0.332,1.147-0.396,1.626-0.183l0.204,0.11c0.468,0.296,0.735,0.859,0.735,1.546v55.292
				c0,1.231-0.835,2.675-1.901,3.29l-67.185,38.796C51.996,155.711,51.723,155.783,51.45,155.783z M72.204,75.039
				c-0.144,0-0.295,0.047-0.446,0.134L52.411,86.338c-0.314,0.187-0.635,0.529-0.872,0.936c-0.235,0.406-0.369,0.849-0.369,1.215
				v65.696c0,0.14,0.088,0.213,0.139,0.242c0.053,0.032,0.158,0.069,0.279,0.001l67.185-38.796c0.661-0.382,1.241-1.387,1.241-2.152
				V58.19c0-0.263-0.07-0.39-0.114-0.429l-0.085-0.046c-0.019-0.001-0.171,0.012-0.392,0.14l-41.916,24.19
				c-0.588,0.34-1.254,0.401-1.832,0.177c-0.586-0.231-1.021-0.725-1.221-1.387l-1.564-5.215c-0.066-0.223-0.194-0.399-0.356-0.493
				C72.428,75.068,72.319,75.039,72.204,75.039z"/>
		</g>
		<g id="Folder_1_">
			<g>
				<path style="fill:#BA68C8;" d="M141.734,128.413l-0.509-0.294c0,0-0.197-0.114-0.595-0.344l-0.518-0.299
					c-0.792-0.459-1.531-1.564-1.652-2.471l-7.043-52.86c-0.114-0.854-0.502-1.466-1.046-1.781c-0.186-0.108-0.71-0.411-0.897-0.519
					c-0.612-0.351-1.42-0.326-2.257,0.157L91.04,90.641c-0.865,0.499-1.86,0.562-2.735,0.262c-0.268-0.234-0.504-0.513-0.692-0.838
					l-1.175-2.034c-0.301-0.521-0.722-0.928-1.208-1.209c-0.187-0.108-0.716-0.413-0.903-0.52c-0.991-0.569-2.249-0.611-3.31,0.001
					l-16.712,9.649c-1.586,0.916-2.676,3.131-2.434,4.947l8.408,63.113c0.101,0.834,0.787,2.318,2.056,3.072l1.619,0.934
					c0.238,0.141,0.601,0.293,1.003,0.304c0.412,0.012,0.7-0.13,0.826-0.202l66.969-39.607
					C142.491,128.664,142.131,128.643,141.734,128.413z"/>
				<path style="opacity:0.25;" d="M141.734,128.413l-1.618-0.934c-0.793-0.458-1.535-1.566-1.655-2.474l-7.043-52.86
					c-0.242-1.816-1.724-2.546-3.311-1.63L92.144,91.279c-1.587,0.916-3.615,0.372-4.531-1.214l-1.175-2.034
					c-0.916-1.587-2.945-2.13-4.532-1.214l-16.712,9.649c-1.587,0.916-2.676,3.131-2.435,4.947l8.326,62.492
					c0.121,0.908,0.862,2.015,1.655,2.473l1.619,0.934c0.396,0.229,0.755,0.251,1.015,0.101l67.376-38.9
					C142.491,128.664,142.131,128.643,141.734,128.413z"/>
				<path style="opacity:0.25;" d="M72.741,166.378l1.619,0.934c0.396,0.229,0.755,0.251,1.015,0.101l67.376-38.9
					c-0.26,0.151-0.62,0.13-1.017-0.1l-1.618-0.934c-0.39-0.225-0.765-0.608-1.062-1.046l-67.374,38.898
					C71.977,165.769,72.352,166.153,72.741,166.378z"/>
			</g>
			<g>
				<path id="XMLID_312_" style="fill:#FAFAFA;" d="M73.134,106.349l0,54.862c0,0.239,0.168,0.53,0.375,0.65l0.423,0.244
					c0.207,0.12,0.543,0.12,0.75,0l60.781-35.092c0.207-0.12,0.375-0.411,0.375-0.65l0-54.861c0-0.239-0.168-0.53-0.375-0.65
					l-0.424-0.245c-0.207-0.12-0.543-0.12-0.751,0l-60.781,35.092C73.302,105.818,73.134,106.109,73.134,106.349z"/>
				<path id="XMLID_305_" style="fill:#E0E0E0;" d="M135.83,71.404c-0.007-0.046-0.02-0.092-0.037-0.139
					c-0.009-0.021-0.02-0.045-0.029-0.067c-0.033-0.068-0.074-0.134-0.122-0.193c-0.032-0.038-0.065-0.072-0.102-0.101
					c-0.025-0.019-0.051-0.037-0.077-0.052l-0.421-0.244c-0.209-0.119-0.543-0.12-0.751,0l-60.781,35.092
					c-0.105,0.061-0.2,0.162-0.265,0.28l1.172,0.678c0.069-0.117,0.163-0.221,0.265-0.28l60.78-35.092
					C135.641,71.182,135.79,71.236,135.83,71.404z"/>
				<g>
					<path id="XMLID_302_" style="fill:#E0E0E0;" d="M74.577,162.15c-0.156,0.036-0.27-0.064-0.271-0.261l0-54.862
						c0.001-0.12,0.04-0.254,0.11-0.37l-1.172-0.678c-0.069,0.117-0.112,0.251-0.11,0.37l0,54.862
						c-0.003,0.238,0.166,0.531,0.374,0.648l0.423,0.246C74.11,162.206,74.376,162.223,74.577,162.15z"/>
				</g>
				<g style="opacity:0.1;">
					<path id="XMLID_293_" d="M74.577,162.15c-0.156,0.036-0.27-0.064-0.271-0.261l0-54.862c0.001-0.12,0.04-0.254,0.11-0.37
						l-1.172-0.678c-0.069,0.117-0.112,0.251-0.11,0.37l0,54.862c-0.003,0.238,0.166,0.531,0.374,0.648l0.423,0.246
						C74.11,162.206,74.376,162.223,74.577,162.15z"/>
				</g>
			</g>
			<path style="fill:#BA68C8;" d="M143.985,75.981c0-0.914-0.321-1.555-0.838-1.856c-0.138-0.08-0.686-0.398-0.826-0.477
				c-0.519-0.297-1.234-0.253-2.025,0.203l-61.628,35.582c-1.587,0.916-2.873,3.144-2.873,4.976v52.075
				c0,0.459-0.161,0.781-0.422,0.93l0.406,0.707l67.785-39.135c0.259-0.15,0.419-0.472,0.419-0.929L143.985,75.981z"/>
			<path style="opacity:0.25;fill:#FFFFFF;" d="M75.781,168.12c0.376-0.217,0.831-0.707,0.831-1.637V114.88
				c0-1.832,1.286-4.06,2.873-4.976l61.628-35.582c1.587-0.916,2.873-0.174,2.873,1.659l0,52.075c0,0.457-0.16,0.779-0.419,0.929
				L75.781,168.12z"/>
		</g>
		<path id="Contact_4_" style="fill:#FAFAFA;" d="M109.883,118.659c3.579-2.066,6.48-7.609,6.48-12.381
			c0-4.772-2.901-6.965-6.48-4.899c-3.579,2.066-6.48,7.609-6.48,12.381S106.305,120.725,109.883,118.659z M120.785,121.526
			c-0.438-3.173-2.666-4.393-5.272-2.888l-11.258,6.5c-2.607,1.505-4.834,5.297-5.272,8.976l-0.781,6.552
			c-0.074,0.617,0.258,0.95,0.696,0.698l21.972-12.686c0.437-0.253,0.77-0.969,0.696-1.501L120.785,121.526z"/>
	</g>
</g>
<g id="Lines_1_">
	<g id="Lines_2_">
		<g>
			<g>
				<path style="fill:#455A64;" d="M190.402,146.144c-0.49,0-0.981-0.129-1.429-0.387c-0.893-0.516-1.428-1.441-1.428-2.473V79.741
					c0-0.707-0.365-1.34-0.978-1.693c-0.611-0.353-1.341-0.353-1.953,0l-28.638,16.54l-0.451-0.781l28.638-16.54
					c0.894-0.516,1.962-0.516,2.855,0c0.894,0.516,1.429,1.441,1.429,2.474v63.543c0,0.706,0.365,1.339,0.977,1.693
					c0.613,0.353,1.344,0.353,1.955,0l27.799-16.057l0.451,0.781l-27.799,16.057C191.383,146.015,190.893,146.144,190.402,146.144z"
					/>
			</g>
			<g>
				<path style="fill:#455A64;" d="M155.751,92.085c1.011-0.584,1.831-0.11,1.831,1.057c0,1.168-0.82,2.587-1.831,3.171
					c-1.011,0.584-1.831,0.111-1.831-1.057C153.92,94.088,154.739,92.669,155.751,92.085z"/>
			</g>
			<g>
				<path style="fill:#455A64;" d="M219.404,127.195c1.011-0.584,1.831-0.11,1.831,1.057c0,1.168-0.82,2.587-1.831,3.171
					c-1.011,0.584-1.831,0.111-1.831-1.057C217.573,129.199,218.392,127.779,219.404,127.195z"/>
			</g>
		</g>
		<g>
			<g>
				<path style="fill:#455A64;" d="M155.75,206.239c1.011-0.584,1.831-0.111,1.831,1.057c0,1.167-0.82,2.587-1.831,3.171
					c-1.011,0.584-1.831,0.11-1.831-1.057C153.92,208.242,154.739,206.823,155.75,206.239z"/>
			</g>
			<g>
				<path style="fill:#455A64;" d="M219.404,148.335c1.011-0.584,1.831-0.111,1.831,1.057c0,1.168-0.82,2.587-1.831,3.171
					c-1.011,0.584-1.831,0.111-1.831-1.057C217.573,150.338,218.392,148.919,219.404,148.335z"/>
			</g>
			<g>
				<path style="fill:#455A64;" d="M155.975,208.744l-0.451-0.781l29.349-16.951c1.649-0.952,2.673-2.726,2.673-4.63v-14.445
					c0-2.225,1.197-4.299,3.124-5.411l28.507-16.466l0.451,0.781l-28.507,16.466c-1.649,0.952-2.673,2.726-2.673,4.631v14.445
					c0,2.225-1.197,4.298-3.124,5.411L155.975,208.744z"/>
			</g>
		</g>
		<g>
			<g>
				<path style="fill:#455A64;" d="M155.751,324.621c1.011-0.584,1.831-0.111,1.831,1.057c0,1.167-0.82,2.587-1.831,3.171
					c-1.011,0.584-1.831,0.111-1.831-1.057C153.92,326.625,154.739,325.205,155.751,324.621z"/>
			</g>
			<g>
				<path style="fill:#455A64;" d="M219.404,190.768c1.011-0.584,1.831-0.111,1.831,1.057c0,1.167-0.82,2.587-1.831,3.171
					c-1.011,0.584-1.831,0.11-1.831-1.057C217.573,192.771,218.392,191.352,219.404,190.768z"/>
			</g>
			<g>
				<path style="fill:#455A64;" d="M155.977,327.125l-0.451-0.78l29.348-16.95c1.649-0.952,2.673-2.727,2.673-4.631v-90.548
					c0-2.225,1.197-4.298,3.124-5.411l28.507-16.467l0.451,0.781l-28.507,16.467c-1.649,0.952-2.673,2.726-2.673,4.63v90.548
					c0,2.225-1.197,4.298-3.124,5.411L155.977,327.125z"/>
			</g>
		</g>
	</g>
</g>
<g id="Shield_3_">
	<g id="Title">
		<g id="Box_1_">
			<polygon style="fill:#37474F;" points="303.532,164.366 237.531,202.471 237.532,225.259 240.07,226.725 306.07,188.62 
				306.07,165.832 			"/>
			<polygon style="fill:#455A64;" points="240.07,203.937 306.07,165.832 306.07,188.62 240.07,226.725 			"/>
			<polygon style="fill:#263238;" points="237.531,202.471 240.07,203.937 240.07,226.725 237.532,225.259 			"/>
		</g>
		
			<text transform="matrix(0.6495 -0.375 0 1 248.5457 215.6439)" style="fill:#FAFAFA; font-family:'Rubik-Bold'; font-size:16.052px;">PRIVATE</text>
	</g>
	<g id="Shield_1_">
		<g id="Shield">
			<g>
				<path style="fill:#BA68C8;" d="M301.478,59.185c-10.653,9.566-19.853,9.064-25.604,4.636
					c-5.746,11.072-14.946,22.191-25.598,24.925l-6.082,16.428c0,0,3.26,3.756,3.26,12.743c0,4.051-0.62,7.612-1.506,11.149
					c-1.11,4.435-2.539,9.023-2.539,16.682c0,5.197,0.685,10.245,3.313,14.839c1.518,2.657,3.708,4.907,6.661,6.673
					c-1.966-1.134-7.753-4.476-9.247-5.338c-3.13-1.801-5.433-4.116-7.009-6.874c-2.628-4.6-3.313-9.643-3.313-14.839
					c0-7.659,1.429-12.247,2.539-16.688c0.886-3.531,1.512-7.092,1.512-11.143c0-8.987-3.26-12.743-3.26-12.743l6.076-16.428
					c10.653-2.734,19.853-13.853,25.598-24.925c5.751,4.429,14.951,4.931,25.604-4.635L301.478,59.185z"/>
				<g>
					<path style="opacity:0.8;fill:#FFFFFF;" d="M269.651,60.228l-3.373-1.947C267.297,59.066,268.427,59.724,269.651,60.228z"/>
					<path style="opacity:0.85;fill:#FFFFFF;" d="M291.883,53.646c-8.765,7.871-16.545,8.923-22.232,6.582l6.223,3.592
						c5.751,4.429,14.952,4.931,25.604-4.636L291.883,53.646z"/>
				</g>
				<path style="opacity:0.65;fill:#FFFFFF;" d="M266.278,58.281c-5.746,11.072-14.946,22.191-25.598,24.925l9.596,5.539
					c10.653-2.734,19.853-13.853,25.598-24.925L266.278,58.281z"/>
				<polygon style="opacity:0.55;fill:#FFFFFF;" points="240.68,83.207 234.604,99.634 244.193,105.173 250.276,88.745 				"/>
				<path style="opacity:0.4;fill:#FFFFFF;" d="M246.721,160.586c-2.628-4.594-3.313-9.643-3.313-14.839
					c0-7.659,1.429-12.247,2.539-16.682c0.886-3.537,1.506-7.098,1.506-11.149c0-8.987-3.26-12.743-3.26-12.743l-9.59-5.539
					c0,0,3.26,3.756,3.26,12.743c0,4.051-0.626,7.612-1.512,11.143c-1.11,4.441-2.539,9.029-2.539,16.688
					c0,5.196,0.685,10.239,3.313,14.839c1.577,2.758,3.88,5.073,7.009,6.874c1.494,0.862,7.281,4.204,9.247,5.338
					C250.429,165.493,248.238,163.244,246.721,160.586z"/>
			</g>
			<g>
				<path style="fill:#BA68C8;" d="M275.876,171.838c-15.911,0.176-25.025-4.02-29.157-11.253c-2.625-4.596-3.31-9.643-3.31-14.839
					c0-7.658,1.425-12.244,2.537-16.683c0.885-3.533,1.51-7.096,1.51-11.144c0-8.987-3.26-12.743-3.26-12.743l6.079-16.431
					c10.652-2.734,19.852-13.855,25.601-24.927c5.749,4.433,14.949,4.932,25.601-4.634l6.079,9.412c0,0-3.26,7.519-3.26,16.507
					c0,4.048,0.624,6.89,1.509,9.401c1.112,3.155,2.537,6.096,2.537,13.754c0,5.196-0.685,11.034-3.31,18.661
					C300.901,138.922,291.787,153.642,275.876,171.838z"/>
				<path style="opacity:0.75;fill:#FFFFFF;" d="M275.876,171.838c-15.911,0.176-25.025-4.02-29.157-11.253
					c-2.625-4.596-3.31-9.643-3.31-14.839c0-7.658,1.425-12.244,2.537-16.683c0.885-3.533,1.51-7.096,1.51-11.144
					c0-8.987-3.26-12.743-3.26-12.743l6.079-16.431c10.652-2.734,19.852-13.855,25.601-24.927
					c5.749,4.433,14.949,4.932,25.601-4.634l6.079,9.412c0,0-3.26,7.519-3.26,16.507c0,4.048,0.624,6.89,1.509,9.401
					c1.112,3.155,2.537,6.096,2.537,13.754c0,5.196-0.685,11.034-3.31,18.661C300.901,138.922,291.787,153.642,275.876,171.838z"/>
				<path style="opacity:0.75;fill:#BA68C8;" d="M273.992,167.704c-12.324-0.146-20.291-3.229-23.684-9.169
					c-1.912-3.349-2.765-7.293-2.765-12.789c0-6.289,1.032-10.298,2.029-14.174c0.13-0.506,0.259-1.007,0.384-1.505
					c1.13-4.509,1.634-8.256,1.634-12.148c0-6.547-1.569-10.836-2.814-13.207l4.665-12.608
					c11.402-3.964,19.642-15.221,24.008-22.606c2.322,0.991,4.834,1.504,7.439,1.504c5.152,0,10.389-1.917,15.614-5.709l2.451,3.795
					c-1.063,3.076-2.79,9.132-2.79,16.015c0,4.028,0.538,7.351,1.744,10.774c0.129,0.364,0.261,0.725,0.394,1.089
					c0.981,2.679,1.908,5.21,1.908,11.291c0,5.777-0.952,11.118-3.085,17.315C297.058,137.388,287.932,151.557,273.992,167.704z"/>
				<path style="opacity:0.4;fill:#FFFFFF;" d="M273.992,167.704c-12.324-0.146-20.291-3.229-23.684-9.169
					c-1.912-3.349-2.765-7.293-2.765-12.789c0-6.289,1.032-10.298,2.029-14.174c0.13-0.506,0.259-1.007,0.384-1.505
					c1.13-4.509,1.634-8.256,1.634-12.148c0-6.547-1.569-10.836-2.814-13.207l4.665-12.608
					c11.402-3.964,19.642-15.221,24.008-22.606c2.322,0.991,4.834,1.504,7.439,1.504c5.152,0,10.389-1.917,15.614-5.709l2.451,3.795
					c-1.063,3.076-2.79,9.132-2.79,16.015c0,4.028,0.538,7.351,1.744,10.774c0.129,0.364,0.261,0.725,0.394,1.089
					c0.981,2.679,1.908,5.21,1.908,11.291c0,5.777-0.952,11.118-3.085,17.315C297.058,137.388,287.932,151.557,273.992,167.704z"/>
				<path style="opacity:0.15;fill:#BA68C8;" d="M273.992,167.704c-12.324-0.146-20.291-3.229-23.684-9.169
					c-1.912-3.349-2.765-7.293-2.765-12.789c0-6.289,1.032-10.298,2.029-14.174c0.13-0.506,0.259-1.007,0.384-1.505
					c1.13-4.509,1.634-8.256,1.634-12.148c0-6.547-1.569-10.836-2.814-13.207l4.665-12.608
					c11.402-3.964,19.642-15.221,24.008-22.606c2.322,0.991,4.834,1.504,7.439,1.504c5.152,0,10.389-1.917,15.614-5.709l2.451,3.795
					c-1.063,3.076-2.79,9.132-2.79,16.015c0,4.028,0.538,7.351,1.744,10.774c0.129,0.364,0.261,0.725,0.394,1.089
					c0.981,2.679,1.908,5.21,1.908,11.291c0,5.777-0.952,11.118-3.085,17.315C297.058,137.388,287.932,151.557,273.992,167.704z"/>
				<path style="opacity:0.8;fill:#FFFFFF;" d="M253.131,161.952c4.198,3.702,11.178,5.638,20.861,5.752l-6.18-3.52
					C262.284,164.151,257.364,163.436,253.131,161.952z"/>
				<polygon style="opacity:0.25;fill:#BA68C8;" points="299.735,67.231 302.953,69.088 300.501,65.293 299.105,66.256 				"/>
			</g>
			<g>
				<path style="fill:#BA68C8;" d="M298.688,94.02c-1.206-3.424-1.744-6.746-1.744-10.774c0-6.882,1.727-12.938,2.79-16.015
					l-0.63-0.975c-4.761,3.149-9.525,4.746-14.218,4.746c-2.605,0-5.117-0.513-7.439-1.504
					c-4.366,7.385-12.606,18.642-24.008,22.606l-4.665,12.608c1.245,2.372,2.814,6.66,2.814,13.207
					c0,3.892-0.504,7.639-1.634,12.148c-0.125,0.498-0.254,0.999-0.384,1.505c-0.997,3.876-2.029,7.885-2.029,14.174
					c0,5.496,0.853,9.441,2.765,12.789c0.965,1.689,2.313,3.139,4.012,4.364c4.119,1.877,9.612,2.867,16.453,2.948
					c13.94-16.147,23.066-30.316,27.132-42.132c2.133-6.198,3.085-11.539,3.085-17.315c0-6.081-0.927-8.612-1.908-11.291
					C298.949,94.745,298.817,94.385,298.688,94.02z"/>
			</g>
		</g>
		<g id="XMLID_350_">
			<path id="XMLID_360_" style="fill:#BA68C8;" d="M281.604,134.134l-14.929,8.619l2.313-27.005
				c-1.785-0.944-2.923-3.267-2.923-6.603c0-5.946,3.615-12.854,8.076-15.429c4.459-2.574,8.074,0.159,8.074,6.105
				c0,3.336-1.138,6.973-2.924,9.979L281.604,134.134z"/>
			<path id="XMLID_365_" style="opacity:0.25;" d="M281.604,134.134l-14.929,8.619l2.313-27.005
				c-1.785-0.944-2.923-3.267-2.923-6.603c0-5.946,3.615-12.854,8.076-15.429c4.459-2.574,8.074,0.159,8.074,6.105
				c0,3.336-1.138,6.973-2.924,9.979L281.604,134.134z"/>
			<polygon id="XMLID_354_" style="opacity:0.15;" points="281.604,134.134 268.083,126.328 266.676,142.753 			"/>
			<path id="XMLID_351_" style="opacity:0.15;" d="M274.141,93.716c-2.918,1.685-5.467,5.227-6.886,9.138l12.037,6.95l0-0.004
				c1.786-3.006,2.924-6.643,2.924-9.979C282.215,93.875,278.599,91.142,274.141,93.716z"/>
		</g>
	</g>
</g>
<g id="Key">
	<g id="Key_1_">
		<path id="XMLID_618_" style="fill:#BA68C8;" d="M250.315,377.579c-14.931-8.621-39.14-8.621-54.072,0
			c-6.257,3.612-10.177,6.04-11.184,10.743l0,4.872c0.007,3.63,1.555,7.26,4.642,10.535l-67.015,33.826v4.866l7.511,4.334h20.953
			l8.24-4.757v-4.6l6.566-3.663l9.137-0.803l3.637-2.1l0.368-8.161l6.752-3.898l9.893,2.237l12.877-7.434
			c13.864,3.319,30.421,1.732,41.694-4.777c7.486-4.322,11.219-9.99,11.199-15.655l0-4.82
			C260.837,383.255,257.028,381.455,250.315,377.579z M240.988,391.535c-4.23,2.442-11.088,2.442-15.318,0
			c-4.23-2.442-4.23-6.402,0-8.844c4.23-2.442,11.088-2.442,15.318,0C245.218,385.134,245.218,389.093,240.988,391.535z"/>
		<path id="XMLID_613_" style="opacity:0.2;" d="M250.315,377.579c-14.931-8.621-39.14-8.621-54.072,0
			c-6.257,3.612-10.177,6.04-11.184,10.743l0,4.872c0.007,3.63,1.555,7.26,4.642,10.535l-67.015,33.826v4.866l7.511,4.334h20.953
			l8.24-4.757v-4.6l6.566-3.663l9.137-0.803l3.637-2.1l0.368-8.161l6.752-3.898l9.893,2.237l12.877-7.434
			c13.864,3.319,30.421,1.732,41.694-4.777c7.486-4.322,11.219-9.99,11.199-15.655l0-4.82
			C260.837,383.255,257.028,381.455,250.315,377.579z M240.988,391.535c-4.23,2.442-11.088,2.442-15.318,0
			c-4.23-2.442-4.23-6.402,0-8.844c4.23-2.442,11.088-2.442,15.318,0C245.218,385.134,245.218,389.093,240.988,391.535z"/>
		<path id="XMLID_605_" style="fill:#BA68C8;" d="M250.315,372.714c-14.931-8.621-39.14-8.621-54.072,0
			c-12.269,7.083-14.435,17.777-6.542,26.15l-67.015,38.691l7.511,4.334h20.953l8.24-4.757l-0.557-4.289l7.123-3.974l9.137-0.803
			l3.637-2.1l0.368-8.161l6.752-3.898l9.893,2.237l12.877-7.434c13.864,3.319,30.421,1.732,41.694-4.777
			C265.246,395.311,265.246,381.334,250.315,372.714z M240.988,386.669c-4.23,2.442-11.088,2.442-15.318,0
			c-4.23-2.442-4.23-6.402,0-8.844c4.23-2.442,11.088-2.442,15.318,0C245.218,380.268,245.218,384.227,240.988,386.669z"/>
		<path id="XMLID_630_" style="opacity:0.3;fill:#FFFFFF;" d="M250.315,372.714c-14.931-8.621-39.14-8.621-54.072,0
			c-12.269,7.083-14.435,17.777-6.542,26.15l-67.015,38.691l7.511,4.334h20.953l8.24-4.757l-0.557-4.289l7.123-3.974l9.137-0.803
			l3.637-2.1l0.368-8.161l6.752-3.898l9.893,2.237l12.877-7.434c13.864,3.319,30.421,1.732,41.694-4.777
			C265.246,395.311,265.246,381.334,250.315,372.714z M240.988,386.669c-4.23,2.442-11.088,2.442-15.318,0
			c-4.23-2.442-4.23-6.402,0-8.844c4.23-2.442,11.088-2.442,15.318,0C245.218,380.268,245.218,384.227,240.988,386.669z"/>
		<g id="XMLID_417_">
			<path style="fill:#BA68C8;" d="M223.279,406.001c-9.451,0-18.272-2.087-24.838-5.876c-5.72-3.304-9-7.605-9-11.803
				c0-4.196,3.28-8.498,9-11.802c6.566-3.79,15.388-5.877,24.838-5.877s18.271,2.087,24.838,5.877
				c5.72,3.304,9.001,7.605,9.001,11.802c0,4.197-3.281,8.499-9.001,11.803C241.551,403.915,232.73,406.001,223.279,406.001z
				 M223.279,372.019c-9.213,0-17.79,2.021-24.15,5.691c-5.283,3.052-8.313,6.92-8.313,10.612c0,3.693,3.029,7.561,8.313,10.613
				c6.359,3.67,14.936,5.69,24.15,5.69c9.214,0,17.791-2.021,24.15-5.69c5.283-3.052,8.314-6.92,8.314-10.613
				c0-3.692-3.03-7.561-8.314-10.612C241.069,374.04,232.492,372.019,223.279,372.019z"/>
		</g>
		<path id="XMLID_414_" style="opacity:0.1;" d="M237.04,408.912v4.863c-9.134,2.034-19.353,1.966-28.42-0.203v-4.864
			C217.687,410.878,227.906,410.946,237.04,408.912z"/>
		<polygon id="XMLID_405_" style="opacity:0.1;" points="195.744,416.143 195.744,421.009 185.85,418.772 185.85,413.906 		"/>
		<polygon id="XMLID_401_" style="opacity:0.1;" points="179.098,417.805 179.098,422.67 178.73,430.832 178.73,425.966 		"/>
		<polygon id="XMLID_393_" style="opacity:0.1;" points="175.092,428.066 175.092,432.932 165.956,433.734 165.956,428.869 		"/>
		<rect id="XMLID_388_" x="130.197" y="441.889" style="opacity:0.1;" width="20.953" height="4.866"/>
		<polygon id="XMLID_381_" style="opacity:0.15;" points="122.686,437.555 122.686,442.421 130.197,446.755 130.197,441.889 
			126.905,439.989 126.905,442.089 125.089,441.04 125.089,438.918 		"/>
		<polygon id="XMLID_380_" style="fill:#BA68C8;" points="125.089,438.918 126.905,439.989 126.905,442.089 125.089,441.04 		"/>
		<polygon id="XMLID_635_" style="opacity:0.3;fill:#FFFFFF;" points="125.089,438.918 126.905,439.989 126.905,442.089 
			125.089,441.04 		"/>
		<polygon id="XMLID_379_" style="fill:#BA68C8;" points="125.089,438.918 125.089,441.04 193.814,401.358 191.997,400.287 		"/>
		<polygon id="XMLID_368_" style="opacity:0.15;" points="191.997,400.287 191.997,402.409 193.814,401.358 		"/>
	</g>
</g>
<g id="Character">
	<g id="Character_8_">
		<g id="Bottom_5_">
			<g>
				<path style="fill:#C8856A;" d="M345.899,388.212l-9.43-18.578l-18.981,11.109l23.398,27.622c0,0,11.597-1.073,13.465-7.124
					C356.219,395.189,349.094,390.224,345.899,388.212z"/>
				<g>
					<path style="fill:#263238;" d="M359.271,395.508c1.157,0.792,1.865,1.741,2.63,2.874c0.765,1.134,0.528,6.634,1.257,9.186
						c0.73,2.551,1.294,3.232,2.513,6.431c1.352,3.545,3.852,6.783,1.028,15.894c-2.861,9.233-7.35,13.453-11.167,15.68
						c-2.007,1.17-4.604,1.117-4.604,1.117s-5.003-1.891-4.236-4.85C347.459,438.88,359.271,395.508,359.271,395.508z"/>
					<path id="XMLID_518_" style="fill:#455A64;" d="M337.318,405.509c0.138,0.938,1.451,2.381,1.984,3.147
						c1.794,2.577,2.619,6.062,3.242,9.109c2.95,14.419-2.782,21.747,4.979,27.156c2.249,1.416,6.912,1.027,14.001-8.061
						c3.621-4.643,5.688-14.189,4.276-18.512c-1.412-4.322-3.345-7.137-4.257-10.463c-0.91-3.325-0.437-9.522-2.272-12.378
						c-1.077-1.676-2.828-2.855-4.502-3.872c-1.376-0.837-4.386-1.938-5.791-2.736c-1.518-0.863-2.176-1.704-3.079-0.687l1.62,2.003
						c2.53,3.502,1.825,4.015,1.765,5.879c-0.063,1.944,0.585,4.001,0.94,5.937c-1.8-2.27-2.535-4.253-4.5-3.905
						c-1.839,0.326-2.199,0.252-5.014,2.893C337.895,403.661,337.195,404.675,337.318,405.509z"/>
					<path style="fill:#37474F;" d="M361.524,436.86c3.621-4.643,5.688-14.189,4.276-18.512c-0.511-1.563-1.089-2.924-1.663-4.188
						c0.06,0.292,0.148,0.59,0.187,0.84c0.088,0.559,0.161,1.12,0.215,1.683c0.208,2.166,0.2,4.526-0.717,6.545
						c-0.817,1.797-2.699,6.304-5.126,6.404c-1.374,0.056-2.534-1.287-3.063-2.823c-0.223-0.649-0.592-2.398-0.592-2.398
						s-3.581,0.772-6.306,2.574c-3.519,2.328-3.391,2.843-3.391,2.843c0.147,0.795,0.306,2.145,0.114,3.089
						c-0.193,0.946-0.728,2.473-1.31,3.077c-0.281,0.292-0.586,0.521-0.896,0.719c0.144,3.325,1.015,5.94,4.27,8.208
						C349.772,446.336,354.435,445.948,361.524,436.86z"/>
					<g>
						<path style="fill:#37474F;" d="M342.544,417.765c0.915,4.473,0.994,8.262,0.9,11.525c1.325,3.692,2.486,3.582,2.644,1.67
							c0.16-1.923-2.39-9.854-4.288-16.413C342.091,415.635,342.332,416.725,342.544,417.765z"/>
						<path style="fill:#37474F;" d="M351.319,394.645c0.213-1.799-0.351-3.647-1.411-5.276c-0.347-0.164-0.671-0.323-0.93-0.47
							c-1.519-0.863-2.176-1.704-3.079-0.687l1.62,2.003c2.53,3.502,1.825,4.014,1.765,5.879c-0.063,1.944,0.585,4.001,0.94,5.937
							c1.469,6.26,2.81,8.351,3.503,14.265c0.693,5.914-0.492,9.889,0.344,10.223c0.835,0.335,2.522-0.336,2.829-5.076
							c0.306-4.74-1.785-12.703-3.261-16.477C352.163,401.192,351.019,397.173,351.319,394.645z"/>
					</g>
					<g>
						<g>
							<path style="fill:#EBEBEB;" d="M355.462,424.824c-0.08,0.081-0.183,0.14-0.302,0.165c-4.151,0.855-6.363,1.898-9.453,5.537
								c-0.219,0.24-0.582,0.279-0.831,0.068c-0.248-0.211-0.279-0.583-0.068-0.831c3.265-3.845,5.699-5.022,10.115-5.929
								c0.318-0.065,0.63,0.14,0.696,0.459C355.659,424.492,355.594,424.689,355.462,424.824z"/>
						</g>
						<g>
							<path style="fill:#EBEBEB;" d="M354.714,419.892c-0.078,0.08-0.179,0.138-0.295,0.166c-4.294,0.994-6.677,2.21-9.957,6.043
								c-0.247,0.276-0.6,0.283-0.854,0.067c-0.253-0.218-0.283-0.6-0.067-0.854c3.461-4.036,6.053-5.382,10.606-6.436
								c0.325-0.076,0.651,0.127,0.726,0.453C354.919,419.541,354.853,419.75,354.714,419.892z"/>
						</g>
						<g>
							<path style="fill:#EBEBEB;" d="M354.817,414.462c-0.085,0.087-0.196,0.152-0.325,0.182
								c-4.736,1.098-7.515,2.567-11.129,6.792c-0.227,0.274-0.661,0.312-0.942,0.073c-0.279-0.24-0.312-0.661-0.072-0.942
								c3.806-4.441,6.823-6.06,11.842-7.223c0.359-0.083,0.717,0.141,0.801,0.5C355.045,414.074,354.972,414.304,354.817,414.462z"
								/>
						</g>
						<g>
							<path style="fill:#EBEBEB;" d="M354.03,409.823c-0.084,0.085-0.193,0.149-0.32,0.178c-4.643,1.073-7.331,2.484-10.884,6.634
								c-0.226,0.263-0.647,0.307-0.922,0.071c-0.275-0.234-0.307-0.647-0.071-0.922c3.727-4.356,6.662-5.92,11.582-7.057
								c0.351-0.082,0.703,0.138,0.785,0.49C354.254,409.442,354.182,409.668,354.03,409.823z"/>
						</g>
						<g>
							<path style="fill:#EBEBEB;" d="M352.329,405.305c-0.084,0.086-0.193,0.149-0.32,0.178c-4.643,1.076-7.328,2.482-10.884,6.636
								c-0.232,0.269-0.647,0.307-0.922,0.071c-0.275-0.234-0.306-0.647-0.071-0.922c3.733-4.359,6.661-5.92,11.582-7.06
								c0.352-0.081,0.704,0.139,0.786,0.49C352.552,404.924,352.48,405.151,352.329,405.305z"/>
						</g>
					</g>
				</g>
			</g>
			<polygon style="fill:#C8856A;" points="340.779,389.699 328.489,399.745 321.54,404.106 329.473,419.108 351.827,408.406 			"/>
			<g>
				<path style="fill:#BA68C8;" d="M365.818,322.607c0,0-44.725-7.413-63.864-7.291c-19.53,0.124-21.342,14.788-16.456,23.769
					c9.357,17.196,41.892,53.666,41.892,53.666s10.928-5.005,14.286-14.461l-7.422-17.017l23.352,7.472l11.926-8.004l0.972-6.088
					L365.818,322.607z"/>
				<path style="opacity:0.4;" d="M365.818,322.607c0,0-44.725-7.413-63.864-7.291c-19.53,0.124-21.342,14.788-16.456,23.769
					c9.357,17.196,41.892,53.666,41.892,53.666s10.928-5.005,14.286-14.461l-7.422-17.017l23.352,7.472l11.926-8.004l0.972-6.088
					L365.818,322.607z"/>
				<path style="fill:#BA68C8;" d="M365.818,322.607l77.426,12.893c0,0,0.762,18.533-6.526,35.133
					c-6.258,14.256-19.019,20.588-28.966,22.118c-10.449,1.608-23.425,1.903-23.425,1.903s-6.072,4.753-12.234,7.202
					c-6.161,2.449-33.128,13.744-33.128,13.744s-7.574-6.412-6.822-19.773l25.463-27.082c5.76-7.023,7.783-9.291,10.987-10.881
					C363.679,348.373,365.268,333.066,365.818,322.607z"/>
				<path style="opacity:0.3;" d="M365.818,322.607l77.426,12.893c0,0,0.762,18.533-6.526,35.133
					c-6.258,14.256-19.019,20.588-28.966,22.118c-10.449,1.608-23.425,1.903-23.425,1.903s-6.072,4.753-12.234,7.202
					c-6.161,2.449-33.128,13.744-33.128,13.744s-7.574-6.412-6.822-19.773l25.463-27.082c5.76-7.023,7.783-9.291,10.987-10.881
					C363.679,348.373,365.268,333.066,365.818,322.607z"/>
				<g style="opacity:0.3;">
					<path d="M330.36,346.783c4.879,7.273,7.938,12.668,9.861,16.391l-5.967-1.9c-6.724-16.021-8.104-20.691-18.85-28.198
						C315.404,333.076,323.113,335.979,330.36,346.783z"/>
					<path d="M390.037,385.674c0,0,0.091,3.931-5.709,8.981c0,0-6.072,4.753-12.234,7.202c-6.161,2.449-33.128,13.744-33.128,13.744
						s-1.464-0.677-3.561-4.644c6.972-1.646,29.936-10.633,37.355-13.777C385.961,391.584,390.037,385.674,390.037,385.674z"/>
					<path d="M361.457,364.206c-2.609,3.059-3.851,4.54-3.851,4.54l-3.737-1.226c0,0,6.629-7.209,10.903-11
						c0.866-0.768,1.507-1.386,2.447-1.921c-2.155-5.664-2.08-14.954-2.08-14.954c0.832,6.429,3.963,11.282,5.647,13.588
						c2.99-0.829,6.45-0.838,10.749-0.122c7.494,1.249,29.201,4.945,29.201,4.945s-20.81-1.874-31.636-2.29
						C368.276,355.349,364.066,361.147,361.457,364.206z"/>
				</g>
			</g>
			<g>
				<g>
					<path style="fill:#263238;" d="M293.365,411.922c-5.26,2.073-8.509,4.162-10.939,7.337c-2.43,3.176-3.172,6.393-0.863,10.241
						c2.308,3.847,6.551,8.364,11.588,8.07c5.037-0.295,8.137-1.55,12.811-4.084L293.365,411.922z"/>
					<path id="XMLID_496_" style="fill:#455A64;" d="M335.404,416.372c0.074,1.576-6.571,4.719-13.474,8.012
						c-7.399,3.53-9.22,5.829-15.261,8.8c-6.901,3.396-9.524,3.592-14.88,2.104c-5.357-1.487-11.964-9.155-7.362-16.205
						c3.752-5.748,8.613-7.326,15.989-9.267c7.625-2.006,11.683-3.411,17.255-5.576c5.326-2.069,9.716-5.786,10.817-4.496
						c-0.761,0.369-6.334,3.808-5.28,4.744c0.258,0.482,1.055,0.331,2.425-0.235c0.597-0.247,1.29-0.398,1.91-0.092
						c0.625,0.308,1.026,1.003,1.378,1.656c0.854,1.586,0.965,2.563,1.67,4.226c0.412,0.972,0.241,0.409,0.625,1.393
						c0.431,1.103,1.25,2.765,1.142,3.775c-0.065,0.608-0.507,0.802-0.976,1.099c-0.469,0.297-1.128,0.656-1.57,0.997
						c-0.177,0.136-0.493,0.588-0.393,0.82c0.167,0.385,1.129,0.203,1.528,0.037c0.48-0.2,1.072-0.332,1.56-0.512
						C332.973,417.481,334.185,416.94,335.404,416.372z"/>
					<path style="fill:#37474F;" d="M309.04,432.042c-0.992,0.5-7.257,3.412-9.224,1.666c-2.129-1.89,2.897-4.906,2.897-4.906
						s0.766-4.726-4.937-11.678c-0.988,0.767-5.108,0.728-5.052-1.697c0.056-2.409,6.959-5.396,7.059-5.44
						c-7.062,1.89-11.711,3.517-15.354,9.097c-4.603,7.05,2.005,14.717,7.362,16.205c5.356,1.488,7.979,1.292,14.88-2.104
						C307.361,432.845,308.433,432.398,309.04,432.042z"/>
					<path style="fill:#37474F;" d="M302.039,428.33c-2.613,0.873-0.821,3.248,3.006,2.478c5.737-1.155,10.501-4.409,16.885-6.424
						c6.903-3.293,13.933-6.36,13.481-8.104c-1.236,0.463-3.877,1.564-3.877,1.564c-0.518,0.22-1.851,0.716-1.851,0.716
						c-5.232,2.259-11.019,5.893-16.678,7.426C308.019,427.338,304.653,427.457,302.039,428.33z"/>
					<path style="fill:#37474F;" d="M298.155,418.021c2.391-1.384,2.807-2.566,7.498-4.721c4.656-2.139,12.618-6.763,17.517-9.617
						c1.533-0.841,5.267-3.912,5.319-3.938c-0.811-0.925-3.799-0.071-6.788,1.814c-2.989,1.885-4.81,3.085-7.775,4.628
						c-5.756,3.458-12.32,5.793-15.608,7.91C295.03,416.213,295.764,419.404,298.155,418.021z"/>
					<g>
						<g>
							<path style="fill:#F0F0F0;" d="M297.802,417.385c0.033,0.077,0.08,0.148,0.137,0.211c0.049,0.051,3.79,4.168,4.476,11.576
								c0.036,0.364,0.329,0.653,0.654,0.647c0.328-0.004,0.564-0.303,0.531-0.667c-0.734-7.926-4.654-12.227-4.87-12.459
								c-0.245-0.263-0.622-0.277-0.84-0.026C297.723,416.856,297.697,417.144,297.802,417.385z"/>
						</g>
						<g>
							<path style="fill:#F0F0F0;" d="M302.44,413.998c0.03,0.07,0.07,0.134,0.121,0.194c0.051,0.06,4.538,5.478,5.542,13.665
								c0.049,0.361,0.345,0.641,0.672,0.626c0.326-0.017,0.555-0.326,0.51-0.689c-1.066-8.658-5.675-14.209-5.9-14.471
								c-0.24-0.272-0.616-0.3-0.843-0.061C302.363,413.451,302.331,413.748,302.44,413.998z"/>
						</g>
						<g>
							<path style="fill:#F0F0F0;" d="M312.657,427.37c0.101,0.232,0.314,0.403,0.554,0.417c0.329,0.017,0.587-0.26,0.576-0.622
								c-0.276-8.381-5.673-16.245-5.928-16.517c-0.246-0.265-0.622-0.277-0.84-0.026c-0.217,0.25-0.187,0.669,0.051,0.928
								c0.057,0.062,5.276,7.744,5.524,15.544C312.597,427.191,312.62,427.284,312.657,427.37z"/>
						</g>
						<g>
							<path style="fill:#F0F0F0;" d="M316.946,424.629c0.099,0.228,0.307,0.396,0.543,0.415c0.331,0.025,0.593-0.247,0.586-0.609
								c-0.159-9.264-5.987-15.424-6.247-15.672c-0.26-0.248-0.634-0.234-0.836,0.032c-0.202,0.266-0.154,0.69,0.104,0.929
								c0.059,0.054,5.638,5.996,5.788,14.617C316.885,424.444,316.908,424.541,316.946,424.629z"/>
						</g>
						<g>
							<path style="fill:#EBEBEB;" d="M322.506,422.279c0.097,0.225,0.301,0.393,0.535,0.414c0.329,0.031,0.595-0.237,0.594-0.599
								c-0.036-8.717-6.164-15.463-6.44-15.735c-0.253-0.255-0.629-0.249-0.838,0.011c-0.21,0.258-0.177,0.675,0.084,0.929
								c0.063,0.064,5.97,6.589,6.002,14.683C322.444,422.088,322.466,422.188,322.506,422.279z"/>
						</g>
					</g>
				</g>
			</g>
		</g>
		<g id="Top_8_">
			<g id="Arm_15_">
				<g>
					<path style="fill:#C8856A;" d="M364.841,256.663c-3.696,5.518-17.739,24.705-17.739,24.705
						c-4.108-4.75-8.98-10.599-13.11-15.669c-5.446-6.645-7.604-8.036-10.488-18.396c-0.728-2.615-2.717-5.552-3.665-7.124
						c-1.77-2.934-2.483-6.109-2.743-7.67c-0.148-1.334-3.546-0.945-4.171,3.338c-0.426,2.211,0.305,4.391,0.302,6.582
						c0.011,0.669,0.369,2.083-0.469,1.963c-5.063-0.73-8.798-6.489-14.858-10.567c-2.191-1.461-7.793-2.979-8.981,0.191
						c-0.099,0.773,0.453,1.305,0.663,1.99c0.031,0.102,0.021,0.176,0.017,0.28c-0.012,0.326-0.023,0.634-0.096,0.955
						c-0.145,0.638-0.41,1.242-0.543,1.884c-0.201,0.966-0.079,1.995,0.34,2.888c0.323,0.687,0.818,1.301,1.004,2.037
						c-0.116,1.743-0.059,2.588,0.534,3.975c0.469,1.098,1.22,2.132,1.933,3.089c0.476,0.639,0.685,1.431,1.02,2.154
						c0.577,1.246,1.521,2.279,2.467,3.274c3.315,3.485,6.879,6.798,11.033,9.221c1.873,1.092,3.859,2.001,5.625,3.271
						c1.308,0.941,2.515,2.036,3.496,3.318c1.237,1.616,2.239,3.411,3.185,5.209c0.018,0.034,0.035,0.067,0.053,0.101
						c8.119,14.089,8.843,19.293,17.394,30.448c7.218,8.933,12.25,5.139,23.147-5.361c13.395-12.907,20.57-20.339,20.57-20.339
						l3.245-42.821C376.082,242.239,368.538,251.145,364.841,256.663z"/>
				</g>
				<path style="fill:#AF6152;" d="M313.38,248.025c-1.005,5.853,1.647,10.207,3.747,12.441
					C312.503,259.206,310.63,253.235,313.38,248.025z"/>
				<path style="fill:#BA68C8;" d="M388.095,238.261c-7.438,1.263-13.229,4.198-22.584,16.576
					c-9.355,12.378-18.409,25.873-18.409,25.873l-7.534-8.24c2.389,1.379,1.981,11.933-1.868,16.705
					c-3.849,4.772-9.502,5.557-9.502,5.557s3.478,6.831,7.309,12.072c3.831,5.241,6.288,6.584,9.563,6.584
					c3.276,0,6.883-1.889,15.44-10.023c8.557-8.134,22.148-21.128,22.148-21.128L388.095,238.261z"/>
				<path style="opacity:0.55;fill:#FFFFFF;" d="M388.095,238.261c-7.438,1.263-13.229,4.198-22.584,16.576
					c-9.355,12.378-18.409,25.873-18.409,25.873l-7.534-8.24c2.389,1.379,1.981,11.933-1.868,16.705
					c-3.849,4.772-9.502,5.557-9.502,5.557s3.478,6.831,7.309,12.072c3.831,5.241,6.288,6.584,9.563,6.584
					c3.276,0,6.883-1.889,15.44-10.023c8.557-8.134,22.148-21.128,22.148-21.128L388.095,238.261z"/>
				<path style="opacity:0.35;fill:#BA68C8;" d="M347.102,280.71c3.977,4.395,6.786,12.071,6.506,16.027
					c1.671-4.624,0.022-12.51-5.037-18.195L347.102,280.71z"/>
				<path style="opacity:0.35;fill:#BA68C8;" d="M331.469,300.367c0.939-0.194,1.857-0.482,2.743-0.846
					c1.807-0.741,3.463-1.826,4.87-3.18c2.645-2.546,4.476-6.084,4.967-9.725c0.025-0.187,0.228-0.127,0.217,0.043
					c-0.256,4.041-1.92,7.853-4.926,10.609c-1.499,1.374-3.255,2.464-5.146,3.212c-0.767,0.304-1.561,0.536-2.365,0.726
					c-0.167-0.277-0.331-0.551-0.49-0.82C331.381,300.379,331.426,300.375,331.469,300.367z"/>
			</g>
			<g id="Chest_11_">
				<g>
					<path id="XMLID_476_" style="fill:#263238;" d="M375.514,265.278c1.039-20.791,5.739-26.527,16.284-27.696l17.406-1.835
						c5.165,1.058,22.936,6.719,28.921,8.798c3.853,1.338,5.511,9.521,6.339,22.341c0.672,10.413,0.776,19.14,0.432,33.537
						c-0.289,12.064-0.585,25.809-4.27,42.58c-14.401,5.458-56.026,0.25-72.62-18.768c1.336-4.299,6.662-12.069,7.506-20.707
						C374.97,285.43,375.187,271.813,375.514,265.278z"/>
					<g>
						<g>
							<path style="fill:#BA68C8;" d="M438.514,244.275l-12.998-4.571c0,0-2.348,5.463-7.383,15.943
								c-5.035,10.48-5.216,15.238-5.686,33.528c-0.47,18.29-3.815,50.441-5.993,57.862c8.058,1.122,15.04,12.807,35.737,9.181
								c0,0,4.349-21.18,5.027-57.265C447.57,280.247,447.667,249.559,438.514,244.275z"/>
							<path style="opacity:0.35;fill:#FFFFFF;" d="M438.514,244.275l-12.998-4.571c0,0-2.348,5.463-7.383,15.943
								c-5.035,10.48-5.216,15.238-5.686,33.528c-0.47,18.29-3.815,50.441-5.993,57.862c8.058,1.122,15.04,12.807,35.737,9.181
								c0,0,4.349-21.18,5.027-57.265C447.57,280.247,447.667,249.559,438.514,244.275z"/>
						</g>
						<g>
							<path style="fill:#BA68C8;" d="M413.174,272.783c2.023-16.425,8.904-17.276,10.496-11.878
								c5.974-8.945,6.227-16.63,6.133-19.694c-1.629-2.822-2.904-5.196-3.447-6.259c-0.717-1.405-1.539-1.114-1.539-1.114
								l-0.048,4.17c0,0-0.955,4.782-5.864,10.817C415.302,253.255,414.031,258.927,413.174,272.783z"/>
							<path style="opacity:0.55;fill:#FFFFFF;" d="M413.174,272.783c2.023-16.425,8.904-17.276,10.496-11.878
								c5.974-8.945,6.227-16.63,6.133-19.694c-1.629-2.822-2.904-5.196-3.447-6.259c-0.717-1.405-1.539-1.114-1.539-1.114
								l-0.048,4.17c0,0-0.955,4.782-5.864,10.817C415.302,253.255,414.031,258.927,413.174,272.783z"/>
						</g>
					</g>
					<g>
						<g>
							<path style="fill:#BA68C8;" d="M401.328,238.157c-7.402,2.882-12.825,11.104-14.574,22.474
								c-1.749,11.371-3.177,40.389-4.404,48.971c-1.226,8.582-6.711,23.535-6.711,23.535s-9.085-3.739-11.603-10.867
								c4.182-5.452,8.063-13.03,8.785-20.183c0.723-7.153,0.057-29.952,1.134-38.678c1.077-8.726,1.999-20.772,12.342-24.799
								c4.457-1.735,14.948-2.425,14.948-2.425L401.328,238.157z"/>
							<path style="opacity:0.35;fill:#FFFFFF;" d="M401.328,238.157c-7.402,2.882-12.825,11.104-14.574,22.474
								c-1.749,11.371-3.177,40.389-4.404,48.971c-1.226,8.582-6.711,23.535-6.711,23.535s-9.085-3.739-11.603-10.867
								c4.182-5.452,8.063-13.03,8.785-20.183c0.723-7.153,0.057-29.952,1.134-38.678c1.077-8.726,1.999-20.772,12.342-24.799
								c4.457-1.735,14.948-2.425,14.948-2.425L401.328,238.157z"/>
						</g>
						<g>
							<path style="fill:#BA68C8;" d="M385.957,267.195c1.013-8.368,5.77-23.336,14.834-26.386c0.536-1.133,0.536-2.651,0.536-2.651
								l-0.082-4.344c0,0-3.819,1.241-7.726,3.769c-3.907,2.528-10.66,10.604-12.403,17.12
								C385.038,251.37,386.595,256.787,385.957,267.195z"/>
							<path style="opacity:0.55;fill:#FFFFFF;" d="M385.957,267.195c1.013-8.368,5.77-23.336,14.834-26.386
								c0.536-1.133,0.536-2.651,0.536-2.651l-0.082-4.344c0,0-3.819,1.241-7.726,3.769c-3.907,2.528-10.66,10.604-12.403,17.12
								C385.038,251.37,386.595,256.787,385.957,267.195z"/>
						</g>
					</g>
				</g>
				<g id="Head_5_">
					<path style="fill:#263238;" d="M424.756,227.308c1.022-5.849,6.876-11.929,9.525-17.02c2.554-4.908,4.079-8.719,3.815-13.347
						c-0.156-2.741-1.865-6.463-3.893-7.253c2.401-10.173-5.219-14.937-9.273-15.923c-1.555-0.378-4.122-0.964-5.607-1.594
						c-2.202-0.934-2.692-2.711-4.464-4.23c-3.05-2.616-8.208-2.7-10.193,1.227c-2.025-2.646-4.791-2.592-7.99-1.795
						c-3.049,0.759-4.508,3.335-4.211,6.144c-4.258-2.411-8.193,0.585-8.598,3.095c-0.298,1.851,0.088,3.416-1.132,5.07
						c-1.375,1.863-3.956,1.818-4.732,0.304c-0.454,2.63,0.563,4.641,3.418,4.509c-0.99,1.42-1.256,3.288-0.768,5.019
						c0.662,2.347,3.013,3.736,4.913,3.787c0.296,1.445,0.351,2.769,1.252,4.019c0.867,1.202,1.993,2.394,3.345,3.046
						c4.311,2.081,9.087,2.774,13.736,3.76c1.84,0.39,3.679,0.781,5.519,1.171c0.321,0.068,1.989,0.177,2.186,0.464
						C411.603,207.763,424.756,227.308,424.756,227.308z"/>
					<g id="XMLID_475_">
						<path style="fill:#C8856A;" d="M431.884,219.771c-4.127,2.438-6.902-0.236-6.902-0.236l-0.237,19.21
							c-3.25,8.243-16.274,12.362-23.514,12.127c-1.112-3.455-1.112-8.763,0.097-12.715l-0.082-5.285c0,0-4.213,0.055-6.961-0.344
							c-4.586-0.651-8.021-4.39-9.307-9.367c-1.343-5.201-1.627-13.479-0.468-19.699c0.296-1.589,0.43-3.211,0.272-4.82
							c-0.422-4.271,0.359-6.752,1.479-10.332c5.071-4.044,16.758-5.372,27.617,1.302c-1.289,6.475,1.205,11.623,5.907,14.116
							c-0.229,1.749-0.468,6.17,2.409,6.102c2.072-0.049,2.224-2.648,4.361-4.928c2.182-2.327,7.108-2.871,9.014,0.515
							C438.236,210.154,436.405,217.101,431.884,219.771z"/>
						<path style="fill:#AF6152;" d="M401.245,232.872c7.284-0.824,12.819-1.589,16.637-6.846c2.395-3.297,4.429-8.608,4.429-8.608
							s-0.776,6.444-3.174,10.8c-1.848,3.358-6.437,6.145-17.855,7.073L401.245,232.872z"/>
					</g>
					<g id="XMLID_441_">
						<path id="XMLID_474_" style="fill:#263238;" d="M404.914,204.689c0.012,1.175,0.94,2.116,2.071,2.101
							c1.132-0.015,2.038-0.981,2.026-2.156c-0.013-1.176-0.94-2.116-2.071-2.101C405.809,202.548,404.902,203.513,404.914,204.689z
							"/>
						<path id="XMLID_458_" style="fill:#263238;" d="M405.498,197.969l4.628,1.906c0.5-1.324-0.132-2.825-1.41-3.351
							C407.438,195.998,405.997,196.645,405.498,197.969z"/>
						<path id="XMLID_453_" style="fill:#263238;" d="M387.84,199.254l4.734-1.739c-0.434-1.336-1.847-2.03-3.154-1.549
							C388.112,196.446,387.405,197.918,387.84,199.254z"/>
						<path id="XMLID_448_" style="fill:#263238;" d="M388.996,204.062c0.115,1.17,1.12,2.026,2.246,1.912
							c1.125-0.114,1.945-1.154,1.83-2.324c-0.115-1.17-1.12-2.026-2.246-1.913C389.7,201.851,388.881,202.891,388.996,204.062z"/>
						<path style="fill:#AF6152;" d="M391.886,211.593l7.117,3.186l2.242-13.969C398.601,199.856,395.172,206.268,391.886,211.593z"
							/>
					</g>
					<g>
						<path id="XMLID_430_" style="fill:#AF6152;" d="M405.676,217.706l-8.573,1.805c0.447,2.447,2.729,4.026,5.098,3.528
							C404.569,222.54,406.124,220.153,405.676,217.706z"/>
						<path style="fill:#FFA8A7;" d="M404.636,219.099c0.364-0.038,0.716-0.022,1.061,0.018c-0.234,1.893-1.593,3.521-3.496,3.922
							c-0.478,0.101-0.947,0.096-1.403,0.037C400.674,221.103,402.355,219.337,404.636,219.099z"/>
					</g>
				</g>
			</g>
			<g id="Arm_9_">
				<g id="Laptop_3_">
					<path style="opacity:0.15;" d="M316.883,359.912c0.585-0.892,1.275-1.698,2.085-2.449c8.001-7.406,23.03-17.194,35.8-25.328
						l58.096,33.546c0.356,0.206,0.356,0.719,0,0.925l-42.192,24.363L316.883,359.912z"/>
					<g id="XMLID_426_">
						<path style="fill:#37474F;" d="M299.267,342.855v0.939c0,1.376,0.733,2.65,1.93,3.345l67.548,38.997
							c0.592,0.347,1.266,0.511,1.922,0.511c0.669,0,1.338-0.167,1.943-0.514l36.819-21.189c1.184-0.682,1.925-1.968,1.925-3.345
							V360.3h-0.008v0.013c0,0.167-0.077,0.322-0.244,0.424l-40.434,23.349L299.267,342.855z"/>
						<path style="fill:#263238;" d="M370.671,384.08v2.569c-0.663,0-1.332-0.169-1.927-0.514l-67.548-38.997
							c-1.196-0.689-1.933-1.967-1.933-3.346v-0.94L370.671,384.08z"/>
						<path style="fill:#455A64;" d="M299.262,342.852l40.051-23.121c0.712-0.411,1.59-0.411,2.302,0l69.483,40.121
							c0.341,0.197,0.341,0.689,0,0.886l-40.427,23.344L299.262,342.852z"/>
						<polygon style="fill:#37474F;" points="371.04,380.681 392.642,368.222 329.477,331.754 307.762,344.148 						"/>
						<polygon style="fill:#263238;" points="307.763,344.147 308.588,344.622 329.479,332.702 391.814,368.699 392.638,368.224 
							329.479,331.753 						"/>
						<polygon style="fill:#263238;" points="381.657,346.023 381.259,346.253 370.671,352.364 351.842,341.493 351.45,341.27 
							362.436,334.928 						"/>
						<polygon style="fill:#37474F;" points="381.259,346.253 370.671,352.364 351.842,341.493 362.436,335.381 						"/>
					</g>
					<g id="Arm_14_">
						<path style="fill:#C8856A;" d="M360.381,350.623c3.389-3.359,8.303-8.018,12.433-9.386c0.533-0.17,1.335-0.544,2.903-0.903
							c-1.424-0.281-2.855-0.38-4.244-0.848c-1.379-0.464-2.694-1.227-3.585-2.376c-0.359-0.462-0.612-1.201-0.159-1.572
							c0.164-0.134,0.377-0.209,0.588-0.216c3.095-0.094,5.533-0.575,8.344-0.777c1.227-0.089,2.607-0.253,3.79,0.069
							c1.153,0.313,2.302,0.649,3.433,1.04c5.133,1.776,9.997,1.301,17.081-1.946c7.084-3.247,32.634-18.972,32.634-18.972
							l-5.413,29.957l-20.21,7.815c0,0,0-0.001,0-0.001c-0.072,0.027-0.137,0.054-0.212,0.081c-1.616,0.606-3.07,1.868-6.931,3.053
							c-4.577,1.405-10.433-0.257-14.41-0.469c-3.977-0.212-10.718,1.627-14.407,3.124c-3.689,1.497-8.118-4.184-9.968-3.501
							C360.195,355.477,356.992,353.982,360.381,350.623z"/>
						<path style="fill:#AF6152;" d="M377.431,338.144c2.678-0.272,5.63,0.911,5.63,0.911s-3.307,0.07-7.344,1.279
							c-1.424-0.281-2.855-0.38-4.244-0.848c-1.217-0.41-2.384-1.053-3.254-1.99C370.443,339.007,374.754,338.416,377.431,338.144z"
							/>
					</g>
					<g id="XMLID_425_">
						<path style="fill:#263238;" d="M369.583,384.651c-1.278,0.493-2.731,0.399-3.942-0.305l-67.251-38.828
							c-1.184-0.683-1.995-1.853-2.224-3.198l-7.363-43.906c-0.041-0.25-0.061-0.501-0.061-0.751c0-1.224,0.487-2.393,1.352-3.252
							l69.888,40.356c0.872,0.507,1.474,1.372,1.643,2.366L369.583,384.651z"/>
						<path style="fill:#455A64;" d="M370.671,384.082l-0.46,0.263c-0.203,0.115-0.412,0.216-0.628,0.305l-7.958-47.516
							c-0.169-0.994-0.771-1.859-1.643-2.366l-69.888-40.356c0.27-0.27,0.588-0.507,0.933-0.71l70.029,40.43
							c0.872,0.507,1.474,1.372,1.643,2.366L370.671,384.082z"/>
						<path style="fill:#37474F;" d="M360.975,335.664l1.084-0.626c0.32,0.427,0.549,0.921,0.641,1.461l7.971,47.583l-0.46,0.263
							c-0.203,0.115-0.412,0.216-0.629,0.304l-7.958-47.516C361.532,336.591,361.301,336.093,360.975,335.664z"/>
						<path style="fill:#BA68C8;" d="M331.706,344.119c-0.493-2.94-3.528-6.844-6.779-8.721c-3.251-1.876-5.486-1.015-4.993,1.925
							c0.493,2.94,3.528,6.844,6.779,8.721C329.964,347.921,332.199,347.059,331.706,344.119z"/>
					</g>
				</g>
				<g>
					<path style="fill:#C8856A;" d="M413.96,328.721c10.77-7.801,19.637-13.986,19.637-13.986l-3.079-33.105
						c0,0-2.325-16.373,1.361-25.636c3.827-9.615,7.616-10.97,7.616-10.97s6.239,2.202,10.412,5.847
						c4.172,3.646,6.163,12.128,7.169,24.085c0.883,10.5,2.545,36.836,2.808,42.981c0.334,7.801-0.042,14.066-8.282,17.836
						c-8.707,3.983-34.823,12.895-34.823,12.895L413.96,328.721z"/>
					<path style="fill:#BA68C8;" d="M438.514,244.275c8.465,2.71,12.788,4.273,16.363,14.193c3.574,9.92,3.453,28.139,4.548,42.738
						c1.095,14.6,1.9,24.137-0.441,28.743c-1.285,2.528-3.625,4.855-12.014,8.018c-8.388,3.163-16.452,6.031-16.452,6.031
						s-0.801-12.898-10.002-21.581l12.64-7.683c0,0-2.9-29.814-3.605-37.969C428.845,268.61,427.98,251.337,438.514,244.275z"/>
					<path style="opacity:0.55;fill:#FFFFFF;" d="M438.514,244.275c8.465,2.71,12.788,4.273,16.363,14.193
						c3.574,9.92,3.453,28.139,4.548,42.738c1.095,14.6,1.9,24.137-0.441,28.743c-1.285,2.528-3.625,4.855-12.014,8.018
						c-8.388,3.163-16.452,6.031-16.452,6.031s-0.801-12.898-10.002-21.581l12.64-7.683c0,0-2.9-29.814-3.605-37.969
						C428.845,268.61,427.98,251.337,438.514,244.275z"/>
					<path style="opacity:0.35;fill:#BA68C8;" d="M433.155,314.735c4.949-2.334,14.768-0.231,16.861,1.539
						c-2.495-4.322-9.177-5.878-17.184-4.876L433.155,314.735z"/>
					<path style="opacity:0.35;fill:#BA68C8;" d="M429.958,323.716c1.552,0.979,2.752,2.679,3.643,4.252
						c0.901,1.59,1.558,3.29,2.021,5.056c0.528,2.012,0.793,4.086,0.851,6.165c0.024,0.849,0.051,1.765-0.014,2.668
						c-0.321,0.117-0.638,0.232-0.939,0.341c0.256-2.963,0.031-5.962-0.733-8.856c-0.453-1.715-1.103-3.394-1.948-4.955
						c-0.86-1.59-1.954-2.967-2.976-4.446C429.814,323.871,429.829,323.634,429.958,323.716z"/>
				</g>
			</g>
		</g>
	</g>
</g>
<g id="Speech_Bubble">
	<g id="Speech_Bubble_8_">
		<g id="Speech_Bubble_9_">
			<g id="XMLID_636_">
				<path id="XMLID_678_" style="fill:#BA68C8;" d="M415.632,139.461l4.504-8.468l-3.624-10.459v-6.403l11.089,6.403v6.402
					l-4.767,8.257c-0.081,0.139-0.196,0.231-0.324,0.288l0.003,0.004L415.632,139.461z"/>
				<path id="XMLID_673_" style="opacity:0.3;" d="M415.632,139.461l4.504-8.468l-3.624-10.459v-6.403l11.089,6.403v6.402
					l-4.767,8.257c-0.081,0.139-0.196,0.231-0.324,0.288l0.003,0.004L415.632,139.461z"/>
				<path id="XMLID_669_" style="fill:#BA68C8;" d="M395.73,67.094c0-2.12,1.488-4.698,3.324-5.759l2.707-1.563
					c1.836-1.06,4.813-1.06,6.649,0l33.728,19.433c1.836,1.06,3.325,3.638,3.325,5.758v45.677c0,2.121-1.489,4.698-3.325,5.759
					l-2.707,1.563c-1.836,1.06-4.813,1.06-6.649,0l-12.145-6.993l-4.758,8.241c-0.304,0.527-1.087,0.452-1.286-0.122l-5.028-14.515
					l-10.512-6.043c-1.836-1.06-3.324-3.638-3.324-5.758L395.73,67.094z"/>
				<path id="XMLID_668_" style="opacity:0.3;" d="M445.463,130.642c0,2.12-1.489,4.698-3.324,5.758l-2.707,1.563
					c-1.66,0.958-4.242,1.042-6.081,0.268c1.565,0.591,2.756-0.291,2.756-2.188l0.001-45.677c0-1.06-0.372-2.235-0.974-3.277
					l9.356-5.402c0.602,1.042,0.974,2.216,0.974,3.277V130.642z"/>
				<path id="XMLID_660_" style="opacity:0.3;fill:#FFFFFF;" d="M395.839,66.149c0.388-1.411,1.675-1.861,3.21-0.977l33.735,19.439
					c0.915,0.527,1.752,1.427,2.342,2.482l9.353-5.397c-0.605-1.055-1.427-1.954-2.342-2.482l-33.719-19.439
					c-1.846-1.055-4.823-1.055-6.654,0l-2.714,1.567C397.483,62.241,396.165,64.257,395.839,66.149z"/>
			</g>
		</g>
		<path id="Shield_2_" style="fill:#FAFAFA;" d="M403.72,83.761c0.289,8.456,2.191,25.249,12.74,35.411
			c7.414-3.959,10.999-15.648,10.753-22.85c0-0.333-0.15-0.646-0.383-0.897c-0.177-0.193-0.402-0.348-0.641-0.445
			c-3.222-1.298-8.174-6.76-10.597-12.233c-0.172-0.387-0.418-0.506-0.678-0.372l0,0l-0.039,0.024
			c-0.078,0.045-0.156,0.113-0.232,0.204l-0.003,0c-0.014,0.015-0.027,0.032-0.041,0.05c-2.276,2.84-6.936,2.996-10.129,0.721
			c-0.242-0.171-0.44-0.221-0.572-0.157l-0.017,0.012c0,0,0.003,0,0.003,0.003C403.762,83.304,403.699,83.48,403.72,83.761z"/>
	</g>
</g>
</svg>
